<mxfile host="app.diagrams.net" modified="2023-03-25T23:32:34.436Z" agent="Mozilla/5.0 (Windows NT 10.0; Win64; x64) AppleWebKit/537.36 (KHTML, like Gecko) Chrome/111.0.0.0 Safari/537.36" etag="pDBKilYsTKnIN2CJOYkR" version="21.1.1" type="google">
  <diagram id="N1XKtm9DaaZ8EHNpobI5" name="Página-1">
    <mxGraphModel grid="1" page="1" gridSize="10" guides="1" tooltips="1" connect="1" arrows="1" fold="1" pageScale="1" pageWidth="2500" pageHeight="8700" math="0" shadow="0">
      <root>
        <mxCell id="0" />
        <mxCell id="1" parent="0" />
        <mxCell id="xrwIqNAE4D9LLXo166CW-221" value="&lt;font size=&quot;1&quot;&gt;&lt;b style=&quot;font-size: 24px;&quot;&gt;HERO KIDS&lt;/b&gt;&lt;/font&gt;" style="swimlane;html=1;startSize=60;fontStyle=0;collapsible=0;horizontal=0;swimlaneLine=1;swimlaneFillColor=#ffffff;strokeWidth=2;whiteSpace=wrap;" vertex="1" parent="1">
          <mxGeometry x="90" y="-1080" width="2140" height="840" as="geometry" />
        </mxCell>
        <mxCell id="6HgxVARiSFyIYE2zhFv--3" value="&lt;font size=&quot;1&quot;&gt;&lt;b style=&quot;font-size: 24px;&quot;&gt;HERO KIDS&lt;/b&gt;&lt;/font&gt;" style="swimlane;html=1;startSize=60;fontStyle=0;collapsible=0;horizontal=0;swimlaneLine=1;swimlaneFillColor=#ffffff;strokeWidth=2;whiteSpace=wrap;" vertex="1" parent="1">
          <mxGeometry x="140" y="80" width="2110" height="2180" as="geometry" />
        </mxCell>
        <mxCell id="6HgxVARiSFyIYE2zhFv--4" value="&lt;b&gt;&lt;font style=&quot;font-size: 22px;&quot;&gt;DIRECTOR/COORDINADOR&lt;/font&gt;&lt;/b&gt;" style="swimlane;html=1;startSize=60;fontStyle=0;collapsible=0;horizontal=0;swimlaneLine=1;swimlaneFillColor=#ffffff;strokeWidth=2;whiteSpace=wrap;fillColor=#FFFFFF;" vertex="1" parent="6HgxVARiSFyIYE2zhFv--3">
          <mxGeometry x="63" width="2047" height="290" as="geometry" />
        </mxCell>
        <mxCell id="6HgxVARiSFyIYE2zhFv--12" style="edgeStyle=orthogonalEdgeStyle;rounded=0;orthogonalLoop=1;jettySize=auto;html=1;entryX=0;entryY=0.5;entryDx=0;entryDy=0;entryPerimeter=0;fontSize=19;" edge="1" parent="6HgxVARiSFyIYE2zhFv--4" source="6HgxVARiSFyIYE2zhFv--10" target="6HgxVARiSFyIYE2zhFv--11">
          <mxGeometry relative="1" as="geometry" />
        </mxCell>
        <mxCell id="6HgxVARiSFyIYE2zhFv--10" value="" style="points=[[0.145,0.145,0],[0.5,0,0],[0.855,0.145,0],[1,0.5,0],[0.855,0.855,0],[0.5,1,0],[0.145,0.855,0],[0,0.5,0]];shape=mxgraph.bpmn.event;html=1;verticalLabelPosition=bottom;labelBackgroundColor=#ffffff;verticalAlign=top;align=center;perimeter=ellipsePerimeter;outlineConnect=0;aspect=fixed;outline=end;symbol=terminate2;fontSize=19;fillColor=#d5e8d4;strokeColor=#82b366;" vertex="1" parent="6HgxVARiSFyIYE2zhFv--4">
          <mxGeometry x="70" y="95" width="50" height="50" as="geometry" />
        </mxCell>
        <mxCell id="6HgxVARiSFyIYE2zhFv--19" style="edgeStyle=orthogonalEdgeStyle;rounded=0;orthogonalLoop=1;jettySize=auto;html=1;fontSize=25;" edge="1" parent="6HgxVARiSFyIYE2zhFv--4" source="6HgxVARiSFyIYE2zhFv--11" target="6HgxVARiSFyIYE2zhFv--18">
          <mxGeometry relative="1" as="geometry" />
        </mxCell>
        <mxCell id="6HgxVARiSFyIYE2zhFv--11" value="Ingresar con usuario y contraseña" style="points=[[0.25,0,0],[0.5,0,0],[0.75,0,0],[1,0.25,0],[1,0.5,0],[1,0.75,0],[0.75,1,0],[0.5,1,0],[0.25,1,0],[0,0.75,0],[0,0.5,0],[0,0.25,0]];shape=mxgraph.bpmn.task;whiteSpace=wrap;rectStyle=rounded;size=10;html=1;taskMarker=abstract;fontSize=19;fillColor=#dae8fc;strokeColor=#6c8ebf;" vertex="1" parent="6HgxVARiSFyIYE2zhFv--4">
          <mxGeometry x="200" y="80" width="120" height="80" as="geometry" />
        </mxCell>
        <mxCell id="6HgxVARiSFyIYE2zhFv--21" style="edgeStyle=orthogonalEdgeStyle;rounded=0;orthogonalLoop=1;jettySize=auto;html=1;entryX=0;entryY=0.5;entryDx=0;entryDy=0;entryPerimeter=0;fontSize=25;" edge="1" parent="6HgxVARiSFyIYE2zhFv--4" source="6HgxVARiSFyIYE2zhFv--18" target="6HgxVARiSFyIYE2zhFv--20">
          <mxGeometry relative="1" as="geometry" />
        </mxCell>
        <mxCell id="6HgxVARiSFyIYE2zhFv--18" value="Observar la información de los estudiantes&amp;nbsp;del jardín" style="points=[[0.25,0,0],[0.5,0,0],[0.75,0,0],[1,0.25,0],[1,0.5,0],[1,0.75,0],[0.75,1,0],[0.5,1,0],[0.25,1,0],[0,0.75,0],[0,0.5,0],[0,0.25,0]];shape=mxgraph.bpmn.task;whiteSpace=wrap;rectStyle=rounded;size=10;html=1;taskMarker=abstract;fontSize=19;fillColor=#dae8fc;strokeColor=#6c8ebf;" vertex="1" parent="6HgxVARiSFyIYE2zhFv--4">
          <mxGeometry x="390" y="75" width="170" height="90" as="geometry" />
        </mxCell>
        <mxCell id="xrwIqNAE4D9LLXo166CW-64" value="" style="edgeStyle=orthogonalEdgeStyle;rounded=0;orthogonalLoop=1;jettySize=auto;html=1;" edge="1" parent="6HgxVARiSFyIYE2zhFv--4" source="6HgxVARiSFyIYE2zhFv--20" target="xrwIqNAE4D9LLXo166CW-63">
          <mxGeometry relative="1" as="geometry" />
        </mxCell>
        <mxCell id="6HgxVARiSFyIYE2zhFv--20" value="Observar la información de los acudientes del jardín" style="points=[[0.25,0,0],[0.5,0,0],[0.75,0,0],[1,0.25,0],[1,0.5,0],[1,0.75,0],[0.75,1,0],[0.5,1,0],[0.25,1,0],[0,0.75,0],[0,0.5,0],[0,0.25,0]];shape=mxgraph.bpmn.task;whiteSpace=wrap;rectStyle=rounded;size=10;html=1;taskMarker=abstract;fontSize=19;fillColor=#dae8fc;strokeColor=#6c8ebf;" vertex="1" parent="6HgxVARiSFyIYE2zhFv--4">
          <mxGeometry x="630" y="64" width="160" height="110" as="geometry" />
        </mxCell>
        <mxCell id="6HgxVARiSFyIYE2zhFv--27" style="edgeStyle=orthogonalEdgeStyle;rounded=0;orthogonalLoop=1;jettySize=auto;html=1;entryX=0;entryY=0.5;entryDx=0;entryDy=0;entryPerimeter=0;fontSize=25;" edge="1" parent="6HgxVARiSFyIYE2zhFv--4" source="6HgxVARiSFyIYE2zhFv--24" target="6HgxVARiSFyIYE2zhFv--26">
          <mxGeometry relative="1" as="geometry" />
        </mxCell>
        <mxCell id="6HgxVARiSFyIYE2zhFv--24" value="Revisar los&lt;br&gt;&amp;nbsp;cupos&amp;nbsp;" style="points=[[0.25,0,0],[0.5,0,0],[0.75,0,0],[1,0.25,0],[1,0.5,0],[1,0.75,0],[0.75,1,0],[0.5,1,0],[0.25,1,0],[0,0.75,0],[0,0.5,0],[0,0.25,0]];shape=mxgraph.bpmn.task;whiteSpace=wrap;rectStyle=rounded;size=10;html=1;taskMarker=abstract;fontSize=19;fillColor=#dae8fc;strokeColor=#6c8ebf;" vertex="1" parent="6HgxVARiSFyIYE2zhFv--4">
          <mxGeometry x="1415" y="80" width="160" height="80" as="geometry" />
        </mxCell>
        <mxCell id="6HgxVARiSFyIYE2zhFv--29" style="edgeStyle=orthogonalEdgeStyle;rounded=0;orthogonalLoop=1;jettySize=auto;html=1;entryX=0;entryY=0.5;entryDx=0;entryDy=0;entryPerimeter=0;fontSize=25;" edge="1" parent="6HgxVARiSFyIYE2zhFv--4" source="6HgxVARiSFyIYE2zhFv--26">
          <mxGeometry relative="1" as="geometry">
            <mxPoint x="1895" y="120" as="targetPoint" />
          </mxGeometry>
        </mxCell>
        <mxCell id="6HgxVARiSFyIYE2zhFv--26" value="Modificar las próximas actividades" style="points=[[0.25,0,0],[0.5,0,0],[0.75,0,0],[1,0.25,0],[1,0.5,0],[1,0.75,0],[0.75,1,0],[0.5,1,0],[0.25,1,0],[0,0.75,0],[0,0.5,0],[0,0.25,0]];shape=mxgraph.bpmn.task;whiteSpace=wrap;rectStyle=rounded;size=10;html=1;taskMarker=abstract;fontSize=19;fillColor=#dae8fc;strokeColor=#6c8ebf;" vertex="1" parent="6HgxVARiSFyIYE2zhFv--4">
          <mxGeometry x="1655" y="80" width="160" height="80" as="geometry" />
        </mxCell>
        <mxCell id="6HgxVARiSFyIYE2zhFv--34" value="" style="points=[[0.145,0.145,0],[0.5,0,0],[0.855,0.145,0],[1,0.5,0],[0.855,0.855,0],[0.5,1,0],[0.145,0.855,0],[0,0.5,0]];shape=mxgraph.bpmn.event;html=1;verticalLabelPosition=bottom;labelBackgroundColor=#ffffff;verticalAlign=top;align=center;perimeter=ellipsePerimeter;outlineConnect=0;aspect=fixed;outline=end;symbol=terminate2;fontSize=25;fillColor=#f8cecc;strokeColor=#b85450;" vertex="1" parent="6HgxVARiSFyIYE2zhFv--4">
          <mxGeometry x="1899" y="94" width="50" height="50" as="geometry" />
        </mxCell>
        <mxCell id="hJShWmBs0dNSn38TEw8a-3" style="edgeStyle=orthogonalEdgeStyle;rounded=0;orthogonalLoop=1;jettySize=auto;html=1;exitX=1;exitY=0.5;exitDx=0;exitDy=0;exitPerimeter=0;entryX=0;entryY=0.5;entryDx=0;entryDy=0;entryPerimeter=0;" edge="1" parent="6HgxVARiSFyIYE2zhFv--4" source="hJShWmBs0dNSn38TEw8a-1" target="6HgxVARiSFyIYE2zhFv--24">
          <mxGeometry relative="1" as="geometry" />
        </mxCell>
        <mxCell id="hJShWmBs0dNSn38TEw8a-1" value="Realizar citacion" style="points=[[0.25,0,0],[0.5,0,0],[0.75,0,0],[1,0.25,0],[1,0.5,0],[1,0.75,0],[0.75,1,0],[0.5,1,0],[0.25,1,0],[0,0.75,0],[0,0.5,0],[0,0.25,0]];shape=mxgraph.bpmn.task;whiteSpace=wrap;rectStyle=rounded;size=10;html=1;taskMarker=abstract;fontSize=19;fillColor=#dae8fc;strokeColor=#6c8ebf;" vertex="1" parent="6HgxVARiSFyIYE2zhFv--4">
          <mxGeometry x="1179" y="80" width="160" height="80" as="geometry" />
        </mxCell>
        <mxCell id="xrwIqNAE4D9LLXo166CW-65" value="" style="edgeStyle=orthogonalEdgeStyle;rounded=0;orthogonalLoop=1;jettySize=auto;html=1;" edge="1" parent="6HgxVARiSFyIYE2zhFv--4" source="xrwIqNAE4D9LLXo166CW-63" target="hJShWmBs0dNSn38TEw8a-1">
          <mxGeometry relative="1" as="geometry" />
        </mxCell>
        <mxCell id="xrwIqNAE4D9LLXo166CW-63" value="Observar la información de las directivas del jardín" style="points=[[0.25,0,0],[0.5,0,0],[0.75,0,0],[1,0.25,0],[1,0.5,0],[1,0.75,0],[0.75,1,0],[0.5,1,0],[0.25,1,0],[0,0.75,0],[0,0.5,0],[0,0.25,0]];shape=mxgraph.bpmn.task;whiteSpace=wrap;rectStyle=rounded;size=10;html=1;taskMarker=abstract;fontSize=19;fillColor=#dae8fc;strokeColor=#6c8ebf;" vertex="1" parent="6HgxVARiSFyIYE2zhFv--4">
          <mxGeometry x="907" y="64" width="160" height="110" as="geometry" />
        </mxCell>
        <mxCell id="6HgxVARiSFyIYE2zhFv--1" value="&lt;b&gt;&lt;font style=&quot;font-size: 22px;&quot;&gt;MÓDULO GESTIÓN USUARIOS&lt;/font&gt;&lt;/b&gt;" style="swimlane;html=1;startSize=60;fontStyle=0;collapsible=0;horizontal=0;swimlaneLine=1;swimlaneFillColor=#ffffff;strokeWidth=2;whiteSpace=wrap;fillColor=#FFFFFF;" vertex="1" parent="6HgxVARiSFyIYE2zhFv--3">
          <mxGeometry x="63" y="290" width="2047" height="830" as="geometry" />
        </mxCell>
        <mxCell id="xrwIqNAE4D9LLXo166CW-62" value="" style="edgeStyle=orthogonalEdgeStyle;rounded=0;orthogonalLoop=1;jettySize=auto;html=1;" edge="1" parent="6HgxVARiSFyIYE2zhFv--1" source="6HgxVARiSFyIYE2zhFv--53" target="xrwIqNAE4D9LLXo166CW-60">
          <mxGeometry relative="1" as="geometry" />
        </mxCell>
        <mxCell id="6HgxVARiSFyIYE2zhFv--53" value="Observar la&lt;br&gt;&amp;nbsp;información de&amp;nbsp;" style="points=[[0.25,0.25,0],[0.5,0,0],[0.75,0.25,0],[1,0.5,0],[0.75,0.75,0],[0.5,1,0],[0.25,0.75,0],[0,0.5,0]];shape=mxgraph.bpmn.gateway2;html=1;verticalLabelPosition=bottom;labelBackgroundColor=#ffffff;verticalAlign=top;align=center;perimeter=rhombusPerimeter;outlineConnect=0;outline=none;symbol=none;fontSize=25;fillColor=#fff2cc;strokeColor=#d6b656;" vertex="1" parent="6HgxVARiSFyIYE2zhFv--1">
          <mxGeometry x="110" y="340" width="80" height="90" as="geometry" />
        </mxCell>
        <mxCell id="xrwIqNAE4D9LLXo166CW-70" style="edgeStyle=orthogonalEdgeStyle;rounded=0;orthogonalLoop=1;jettySize=auto;html=1;exitX=1;exitY=0.5;exitDx=0;exitDy=0;exitPerimeter=0;entryX=0.5;entryY=0;entryDx=0;entryDy=0;entryPerimeter=0;" edge="1" parent="6HgxVARiSFyIYE2zhFv--1" source="6HgxVARiSFyIYE2zhFv--54" target="xrwIqNAE4D9LLXo166CW-67">
          <mxGeometry relative="1" as="geometry" />
        </mxCell>
        <mxCell id="6HgxVARiSFyIYE2zhFv--54" value="&amp;nbsp;Eestudiantes" style="points=[[0.25,0,0],[0.5,0,0],[0.75,0,0],[1,0.25,0],[1,0.5,0],[1,0.75,0],[0.75,1,0],[0.5,1,0],[0.25,1,0],[0,0.75,0],[0,0.5,0],[0,0.25,0]];shape=mxgraph.bpmn.task;whiteSpace=wrap;rectStyle=rounded;size=10;html=1;taskMarker=abstract;fontSize=19;fillColor=#dae8fc;strokeColor=#6c8ebf;" vertex="1" parent="6HgxVARiSFyIYE2zhFv--1">
          <mxGeometry x="230" y="146" width="150" height="54" as="geometry" />
        </mxCell>
        <mxCell id="xrwIqNAE4D9LLXo166CW-68" style="edgeStyle=orthogonalEdgeStyle;rounded=0;orthogonalLoop=1;jettySize=auto;html=1;exitX=1;exitY=0.5;exitDx=0;exitDy=0;exitPerimeter=0;entryX=0.5;entryY=1;entryDx=0;entryDy=0;entryPerimeter=0;" edge="1" parent="6HgxVARiSFyIYE2zhFv--1" source="N2e0LCqrp00PIFlCkm0e-2" target="xrwIqNAE4D9LLXo166CW-67">
          <mxGeometry relative="1" as="geometry" />
        </mxCell>
        <mxCell id="N2e0LCqrp00PIFlCkm0e-2" value="Directivas&amp;nbsp;" style="points=[[0.25,0,0],[0.5,0,0],[0.75,0,0],[1,0.25,0],[1,0.5,0],[1,0.75,0],[0.75,1,0],[0.5,1,0],[0.25,1,0],[0,0.75,0],[0,0.5,0],[0,0.25,0]];shape=mxgraph.bpmn.task;whiteSpace=wrap;rectStyle=rounded;size=10;html=1;taskMarker=abstract;fontSize=19;fillColor=#dae8fc;strokeColor=#6c8ebf;" vertex="1" parent="6HgxVARiSFyIYE2zhFv--1">
          <mxGeometry x="230" y="556" width="150" height="64" as="geometry" />
        </mxCell>
        <mxCell id="N2e0LCqrp00PIFlCkm0e-3" style="edgeStyle=orthogonalEdgeStyle;rounded=0;orthogonalLoop=1;jettySize=auto;html=1;exitX=0.5;exitY=1;exitDx=0;exitDy=0;exitPerimeter=0;entryX=0;entryY=0.5;entryDx=0;entryDy=0;entryPerimeter=0;" edge="1" parent="6HgxVARiSFyIYE2zhFv--1" source="6HgxVARiSFyIYE2zhFv--53" target="N2e0LCqrp00PIFlCkm0e-2">
          <mxGeometry relative="1" as="geometry" />
        </mxCell>
        <mxCell id="6HgxVARiSFyIYE2zhFv--57" style="edgeStyle=orthogonalEdgeStyle;rounded=0;orthogonalLoop=1;jettySize=auto;html=1;entryX=0;entryY=0.5;entryDx=0;entryDy=0;entryPerimeter=0;fontSize=25;" edge="1" parent="6HgxVARiSFyIYE2zhFv--1" source="6HgxVARiSFyIYE2zhFv--53" target="6HgxVARiSFyIYE2zhFv--54">
          <mxGeometry relative="1" as="geometry">
            <Array as="points">
              <mxPoint x="150" y="173" />
            </Array>
          </mxGeometry>
        </mxCell>
        <mxCell id="xrwIqNAE4D9LLXo166CW-69" style="edgeStyle=orthogonalEdgeStyle;rounded=0;orthogonalLoop=1;jettySize=auto;html=1;exitX=1;exitY=0.75;exitDx=0;exitDy=0;exitPerimeter=0;entryX=0;entryY=0.5;entryDx=0;entryDy=0;entryPerimeter=0;" edge="1" parent="6HgxVARiSFyIYE2zhFv--1" source="xrwIqNAE4D9LLXo166CW-60" target="xrwIqNAE4D9LLXo166CW-67">
          <mxGeometry relative="1" as="geometry">
            <mxPoint x="797" y="409.9999999999982" as="targetPoint" />
          </mxGeometry>
        </mxCell>
        <mxCell id="xrwIqNAE4D9LLXo166CW-60" value="&amp;nbsp;Acudientes&amp;nbsp;" style="points=[[0.25,0,0],[0.5,0,0],[0.75,0,0],[1,0.25,0],[1,0.5,0],[1,0.75,0],[0.75,1,0],[0.5,1,0],[0.25,1,0],[0,0.75,0],[0,0.5,0],[0,0.25,0]];shape=mxgraph.bpmn.task;whiteSpace=wrap;rectStyle=rounded;size=10;html=1;taskMarker=abstract;fontSize=19;fillColor=#dae8fc;strokeColor=#6c8ebf;" vertex="1" parent="6HgxVARiSFyIYE2zhFv--1">
          <mxGeometry x="287" y="360" width="150" height="50" as="geometry" />
        </mxCell>
        <mxCell id="xrwIqNAE4D9LLXo166CW-67" value="" style="points=[[0.145,0.145,0],[0.5,0,0],[0.855,0.145,0],[1,0.5,0],[0.855,0.855,0],[0.5,1,0],[0.145,0.855,0],[0,0.5,0]];shape=mxgraph.bpmn.event;html=1;verticalLabelPosition=bottom;labelBackgroundColor=#ffffff;verticalAlign=top;align=center;perimeter=ellipsePerimeter;outlineConnect=0;aspect=fixed;outline=end;symbol=terminate2;fontSize=25;fillColor=#f8cecc;strokeColor=#b85450;" vertex="1" parent="6HgxVARiSFyIYE2zhFv--1">
          <mxGeometry x="797" y="372" width="50" height="50" as="geometry" />
        </mxCell>
        <mxCell id="6HgxVARiSFyIYE2zhFv--7" value="&lt;b&gt;&lt;font style=&quot;font-size: 26px;&quot;&gt;MÓDULO TRÁMITES&lt;/font&gt;&lt;/b&gt;" style="swimlane;html=1;startSize=59;fontStyle=0;collapsible=0;horizontal=0;swimlaneLine=1;swimlaneFillColor=#ffffff;strokeWidth=2;whiteSpace=wrap;" vertex="1" parent="6HgxVARiSFyIYE2zhFv--3">
          <mxGeometry x="62" y="1120" width="2048" height="550" as="geometry" />
        </mxCell>
        <mxCell id="6HgxVARiSFyIYE2zhFv--86" style="edgeStyle=orthogonalEdgeStyle;rounded=0;orthogonalLoop=1;jettySize=auto;html=1;entryX=0;entryY=0.5;entryDx=0;entryDy=0;entryPerimeter=0;fontSize=25;" edge="1" parent="6HgxVARiSFyIYE2zhFv--7" source="6HgxVARiSFyIYE2zhFv--75" target="6HgxVARiSFyIYE2zhFv--91">
          <mxGeometry relative="1" as="geometry">
            <Array as="points">
              <mxPoint x="159" y="435" />
            </Array>
            <mxPoint x="233.5" y="434.99999999999955" as="targetPoint" />
          </mxGeometry>
        </mxCell>
        <mxCell id="hJShWmBs0dNSn38TEw8a-5" value="" style="edgeStyle=orthogonalEdgeStyle;rounded=0;orthogonalLoop=1;jettySize=auto;html=1;" edge="1" parent="6HgxVARiSFyIYE2zhFv--7" source="6HgxVARiSFyIYE2zhFv--75" target="hJShWmBs0dNSn38TEw8a-4">
          <mxGeometry relative="1" as="geometry" />
        </mxCell>
        <mxCell id="6HgxVARiSFyIYE2zhFv--75" value="Elegir una &lt;br&gt;opción" style="points=[[0.25,0.25,0],[0.5,0,0],[0.75,0.25,0],[1,0.5,0],[0.75,0.75,0],[0.5,1,0],[0.25,0.75,0],[0,0.5,0]];shape=mxgraph.bpmn.gateway2;html=1;verticalLabelPosition=bottom;labelBackgroundColor=#ffffff;verticalAlign=top;align=center;perimeter=rhombusPerimeter;outlineConnect=0;outline=none;symbol=none;fontSize=25;fillColor=#fff2cc;strokeColor=#d6b656;" vertex="1" parent="6HgxVARiSFyIYE2zhFv--7">
          <mxGeometry x="119" y="200" width="80" height="90" as="geometry" />
        </mxCell>
        <mxCell id="A3xHUpBDQqubrqk8rHVJ-3" style="edgeStyle=orthogonalEdgeStyle;rounded=0;orthogonalLoop=1;jettySize=auto;html=1;exitX=1;exitY=0.5;exitDx=0;exitDy=0;exitPerimeter=0;entryX=0.5;entryY=1;entryDx=0;entryDy=0;entryPerimeter=0;" edge="1" parent="6HgxVARiSFyIYE2zhFv--7" source="6HgxVARiSFyIYE2zhFv--91" target="A3xHUpBDQqubrqk8rHVJ-1">
          <mxGeometry relative="1" as="geometry" />
        </mxCell>
        <mxCell id="6HgxVARiSFyIYE2zhFv--91" value="Revisar los cupos" style="points=[[0.25,0,0],[0.5,0,0],[0.75,0,0],[1,0.25,0],[1,0.5,0],[1,0.75,0],[0.75,1,0],[0.5,1,0],[0.25,1,0],[0,0.75,0],[0,0.5,0],[0,0.25,0]];shape=mxgraph.bpmn.task;whiteSpace=wrap;rectStyle=rounded;size=10;html=1;taskMarker=abstract;fontSize=19;fillColor=#dae8fc;strokeColor=#6c8ebf;" vertex="1" parent="6HgxVARiSFyIYE2zhFv--7">
          <mxGeometry x="339" y="392.5" width="121" height="85" as="geometry" />
        </mxCell>
        <mxCell id="A3xHUpBDQqubrqk8rHVJ-1" value="" style="points=[[0.145,0.145,0],[0.5,0,0],[0.855,0.145,0],[1,0.5,0],[0.855,0.855,0],[0.5,1,0],[0.145,0.855,0],[0,0.5,0]];shape=mxgraph.bpmn.event;html=1;verticalLabelPosition=bottom;labelBackgroundColor=#ffffff;verticalAlign=top;align=center;perimeter=ellipsePerimeter;outlineConnect=0;aspect=fixed;outline=end;symbol=terminate2;fontSize=25;fillColor=#f8cecc;strokeColor=#b85450;" vertex="1" parent="6HgxVARiSFyIYE2zhFv--7">
          <mxGeometry x="877" y="220" width="50" height="50" as="geometry" />
        </mxCell>
        <mxCell id="hJShWmBs0dNSn38TEw8a-7" style="edgeStyle=orthogonalEdgeStyle;rounded=0;orthogonalLoop=1;jettySize=auto;html=1;exitX=1;exitY=0.5;exitDx=0;exitDy=0;exitPerimeter=0;entryX=0;entryY=0.5;entryDx=0;entryDy=0;entryPerimeter=0;" edge="1" parent="6HgxVARiSFyIYE2zhFv--7" source="hJShWmBs0dNSn38TEw8a-4" target="hJShWmBs0dNSn38TEw8a-6">
          <mxGeometry relative="1" as="geometry" />
        </mxCell>
        <mxCell id="hJShWmBs0dNSn38TEw8a-4" value="Crear &lt;br&gt;citación" style="points=[[0.25,0,0],[0.5,0,0],[0.75,0,0],[1,0.25,0],[1,0.5,0],[1,0.75,0],[0.75,1,0],[0.5,1,0],[0.25,1,0],[0,0.75,0],[0,0.5,0],[0,0.25,0]];shape=mxgraph.bpmn.task;whiteSpace=wrap;rectStyle=rounded;size=10;html=1;taskMarker=abstract;fontSize=19;fillColor=#dae8fc;strokeColor=#6c8ebf;" vertex="1" parent="6HgxVARiSFyIYE2zhFv--7">
          <mxGeometry x="257" y="220" width="103" height="50" as="geometry" />
        </mxCell>
        <mxCell id="hJShWmBs0dNSn38TEw8a-11" style="edgeStyle=orthogonalEdgeStyle;rounded=0;orthogonalLoop=1;jettySize=auto;html=1;exitX=0.5;exitY=0;exitDx=0;exitDy=0;exitPerimeter=0;entryX=0;entryY=0.5;entryDx=0;entryDy=0;entryPerimeter=0;" edge="1" parent="6HgxVARiSFyIYE2zhFv--7" source="hJShWmBs0dNSn38TEw8a-6" target="hJShWmBs0dNSn38TEw8a-10">
          <mxGeometry relative="1" as="geometry" />
        </mxCell>
        <mxCell id="hJShWmBs0dNSn38TEw8a-12" style="edgeStyle=orthogonalEdgeStyle;rounded=0;orthogonalLoop=1;jettySize=auto;html=1;exitX=1;exitY=0.5;exitDx=0;exitDy=0;exitPerimeter=0;entryX=0;entryY=0.5;entryDx=0;entryDy=0;entryPerimeter=0;" edge="1" parent="6HgxVARiSFyIYE2zhFv--7" source="hJShWmBs0dNSn38TEw8a-6" target="hJShWmBs0dNSn38TEw8a-9">
          <mxGeometry relative="1" as="geometry" />
        </mxCell>
        <mxCell id="hJShWmBs0dNSn38TEw8a-13" style="edgeStyle=orthogonalEdgeStyle;rounded=0;orthogonalLoop=1;jettySize=auto;html=1;exitX=0.5;exitY=1;exitDx=0;exitDy=0;exitPerimeter=0;entryX=0;entryY=0.5;entryDx=0;entryDy=0;entryPerimeter=0;" edge="1" parent="6HgxVARiSFyIYE2zhFv--7" source="hJShWmBs0dNSn38TEw8a-6" target="hJShWmBs0dNSn38TEw8a-8">
          <mxGeometry relative="1" as="geometry" />
        </mxCell>
        <mxCell id="hJShWmBs0dNSn38TEw8a-6" value="Selecionar" style="points=[[0.25,0.25,0],[0.5,0,0],[0.75,0.25,0],[1,0.5,0],[0.75,0.75,0],[0.5,1,0],[0.25,0.75,0],[0,0.5,0]];shape=mxgraph.bpmn.gateway2;html=1;verticalLabelPosition=bottom;labelBackgroundColor=#ffffff;verticalAlign=top;align=center;perimeter=rhombusPerimeter;outlineConnect=0;outline=none;symbol=none;fontSize=25;fillColor=#fff2cc;strokeColor=#d6b656;" vertex="1" parent="6HgxVARiSFyIYE2zhFv--7">
          <mxGeometry x="431" y="210" width="70" height="70" as="geometry" />
        </mxCell>
        <mxCell id="hJShWmBs0dNSn38TEw8a-14" style="edgeStyle=orthogonalEdgeStyle;rounded=0;orthogonalLoop=1;jettySize=auto;html=1;exitX=1;exitY=0.5;exitDx=0;exitDy=0;exitPerimeter=0;entryX=0.145;entryY=0.145;entryDx=0;entryDy=0;entryPerimeter=0;" edge="1" parent="6HgxVARiSFyIYE2zhFv--7" source="hJShWmBs0dNSn38TEw8a-10" target="A3xHUpBDQqubrqk8rHVJ-1">
          <mxGeometry relative="1" as="geometry" />
        </mxCell>
        <mxCell id="hJShWmBs0dNSn38TEw8a-10" value="Observar citación" style="points=[[0.25,0,0],[0.5,0,0],[0.75,0,0],[1,0.25,0],[1,0.5,0],[1,0.75,0],[0.75,1,0],[0.5,1,0],[0.25,1,0],[0,0.75,0],[0,0.5,0],[0,0.25,0]];shape=mxgraph.bpmn.task;whiteSpace=wrap;rectStyle=rounded;size=10;html=1;taskMarker=abstract;fontSize=19;fillColor=#dae8fc;strokeColor=#6c8ebf;" vertex="1" parent="6HgxVARiSFyIYE2zhFv--7">
          <mxGeometry x="567" y="150" width="103" height="50" as="geometry" />
        </mxCell>
        <mxCell id="hJShWmBs0dNSn38TEw8a-15" style="edgeStyle=orthogonalEdgeStyle;rounded=0;orthogonalLoop=1;jettySize=auto;html=1;exitX=1;exitY=0.5;exitDx=0;exitDy=0;exitPerimeter=0;" edge="1" parent="6HgxVARiSFyIYE2zhFv--7" source="hJShWmBs0dNSn38TEw8a-9">
          <mxGeometry relative="1" as="geometry">
            <mxPoint x="877" y="244.5454545454545" as="targetPoint" />
          </mxGeometry>
        </mxCell>
        <mxCell id="hJShWmBs0dNSn38TEw8a-9" value="Modificar citación&amp;nbsp;" style="points=[[0.25,0,0],[0.5,0,0],[0.75,0,0],[1,0.25,0],[1,0.5,0],[1,0.75,0],[0.75,1,0],[0.5,1,0],[0.25,1,0],[0,0.75,0],[0,0.5,0],[0,0.25,0]];shape=mxgraph.bpmn.task;whiteSpace=wrap;rectStyle=rounded;size=10;html=1;taskMarker=abstract;fontSize=19;fillColor=#dae8fc;strokeColor=#6c8ebf;" vertex="1" parent="6HgxVARiSFyIYE2zhFv--7">
          <mxGeometry x="567" y="220" width="103" height="50" as="geometry" />
        </mxCell>
        <mxCell id="hJShWmBs0dNSn38TEw8a-16" style="edgeStyle=orthogonalEdgeStyle;rounded=0;orthogonalLoop=1;jettySize=auto;html=1;exitX=1;exitY=0.5;exitDx=0;exitDy=0;exitPerimeter=0;entryX=0.145;entryY=0.855;entryDx=0;entryDy=0;entryPerimeter=0;" edge="1" parent="6HgxVARiSFyIYE2zhFv--7" source="hJShWmBs0dNSn38TEw8a-8" target="A3xHUpBDQqubrqk8rHVJ-1">
          <mxGeometry relative="1" as="geometry" />
        </mxCell>
        <mxCell id="hJShWmBs0dNSn38TEw8a-8" value="Eliminar&lt;br&gt;citación" style="points=[[0.25,0,0],[0.5,0,0],[0.75,0,0],[1,0.25,0],[1,0.5,0],[1,0.75,0],[0.75,1,0],[0.5,1,0],[0.25,1,0],[0,0.75,0],[0,0.5,0],[0,0.25,0]];shape=mxgraph.bpmn.task;whiteSpace=wrap;rectStyle=rounded;size=10;html=1;taskMarker=abstract;fontSize=19;fillColor=#dae8fc;strokeColor=#6c8ebf;" vertex="1" parent="6HgxVARiSFyIYE2zhFv--7">
          <mxGeometry x="567" y="330" width="103" height="50" as="geometry" />
        </mxCell>
        <mxCell id="6HgxVARiSFyIYE2zhFv--2" value="&lt;b style=&quot;&quot;&gt;&lt;font style=&quot;font-size: 25px;&quot;&gt;MÓDULO CALENDARIO&lt;br&gt;&lt;/font&gt;&lt;/b&gt;" style="swimlane;html=1;startSize=58;fontStyle=0;collapsible=0;horizontal=0;swimlaneLine=1;swimlaneFillColor=#ffffff;strokeWidth=2;whiteSpace=wrap;" vertex="1" parent="6HgxVARiSFyIYE2zhFv--3">
          <mxGeometry x="62" y="1670" width="2047.5" height="510" as="geometry" />
        </mxCell>
        <mxCell id="6HgxVARiSFyIYE2zhFv--110" value="" style="edgeStyle=orthogonalEdgeStyle;rounded=0;orthogonalLoop=1;jettySize=auto;html=1;fontSize=25;" edge="1" parent="6HgxVARiSFyIYE2zhFv--2" source="6HgxVARiSFyIYE2zhFv--94">
          <mxGeometry relative="1" as="geometry">
            <mxPoint x="430" y="235" as="targetPoint" />
          </mxGeometry>
        </mxCell>
        <mxCell id="6HgxVARiSFyIYE2zhFv--94" value="Ingresar calendario" style="points=[[0.25,0,0],[0.5,0,0],[0.75,0,0],[1,0.25,0],[1,0.5,0],[1,0.75,0],[0.75,1,0],[0.5,1,0],[0.25,1,0],[0,0.75,0],[0,0.5,0],[0,0.25,0]];shape=mxgraph.bpmn.task;whiteSpace=wrap;rectStyle=rounded;size=10;html=1;taskMarker=abstract;fontSize=19;fillColor=#dae8fc;strokeColor=#6c8ebf;" vertex="1" parent="6HgxVARiSFyIYE2zhFv--2">
          <mxGeometry x="200" y="181" width="150" height="110" as="geometry" />
        </mxCell>
        <mxCell id="6HgxVARiSFyIYE2zhFv--120" value="" style="edgeStyle=orthogonalEdgeStyle;rounded=0;orthogonalLoop=1;jettySize=auto;html=1;fontSize=25;" edge="1" parent="6HgxVARiSFyIYE2zhFv--2" source="6HgxVARiSFyIYE2zhFv--111" target="6HgxVARiSFyIYE2zhFv--119">
          <mxGeometry relative="1" as="geometry" />
        </mxCell>
        <mxCell id="6HgxVARiSFyIYE2zhFv--111" value="Modificar los eventos" style="points=[[0.25,0,0],[0.5,0,0],[0.75,0,0],[1,0.25,0],[1,0.5,0],[1,0.75,0],[0.75,1,0],[0.5,1,0],[0.25,1,0],[0,0.75,0],[0,0.5,0],[0,0.25,0]];shape=mxgraph.bpmn.task;whiteSpace=wrap;rectStyle=rounded;size=10;html=1;taskMarker=abstract;fontSize=19;fillColor=#dae8fc;strokeColor=#6c8ebf;" vertex="1" parent="6HgxVARiSFyIYE2zhFv--2">
          <mxGeometry x="427.5" y="191" width="150" height="110" as="geometry" />
        </mxCell>
        <mxCell id="6HgxVARiSFyIYE2zhFv--122" value="" style="edgeStyle=orthogonalEdgeStyle;rounded=0;orthogonalLoop=1;jettySize=auto;html=1;fontSize=25;" edge="1" parent="6HgxVARiSFyIYE2zhFv--2" source="6HgxVARiSFyIYE2zhFv--119" target="6HgxVARiSFyIYE2zhFv--121">
          <mxGeometry relative="1" as="geometry" />
        </mxCell>
        <mxCell id="6HgxVARiSFyIYE2zhFv--119" value="Ingresa los datos correspondientes" style="points=[[0.25,0,0],[0.5,0,0],[0.75,0,0],[1,0.25,0],[1,0.5,0],[1,0.75,0],[0.75,1,0],[0.5,1,0],[0.25,1,0],[0,0.75,0],[0,0.5,0],[0,0.25,0]];shape=mxgraph.bpmn.task;whiteSpace=wrap;rectStyle=rounded;size=10;html=1;taskMarker=abstract;fontSize=19;fillColor=#dae8fc;strokeColor=#6c8ebf;" vertex="1" parent="6HgxVARiSFyIYE2zhFv--2">
          <mxGeometry x="657.5" y="191" width="150" height="110" as="geometry" />
        </mxCell>
        <mxCell id="6HgxVARiSFyIYE2zhFv--136" style="edgeStyle=orthogonalEdgeStyle;rounded=0;orthogonalLoop=1;jettySize=auto;html=1;entryX=0.5;entryY=0;entryDx=0;entryDy=0;entryPerimeter=0;fontSize=25;startArrow=none;" edge="1" parent="6HgxVARiSFyIYE2zhFv--2" source="6HgxVARiSFyIYE2zhFv--130" target="6HgxVARiSFyIYE2zhFv--134">
          <mxGeometry relative="1" as="geometry" />
        </mxCell>
        <mxCell id="6HgxVARiSFyIYE2zhFv--121" value="Asignar al calendario" style="points=[[0.25,0,0],[0.5,0,0],[0.75,0,0],[1,0.25,0],[1,0.5,0],[1,0.75,0],[0.75,1,0],[0.5,1,0],[0.25,1,0],[0,0.75,0],[0,0.5,0],[0,0.25,0]];shape=mxgraph.bpmn.task;whiteSpace=wrap;rectStyle=rounded;size=10;html=1;taskMarker=abstract;fontSize=19;fillColor=#dae8fc;strokeColor=#6c8ebf;" vertex="1" parent="6HgxVARiSFyIYE2zhFv--2">
          <mxGeometry x="887.5" y="191" width="150" height="110" as="geometry" />
        </mxCell>
        <mxCell id="6HgxVARiSFyIYE2zhFv--134" value="" style="points=[[0.145,0.145,0],[0.5,0,0],[0.855,0.145,0],[1,0.5,0],[0.855,0.855,0],[0.5,1,0],[0.145,0.855,0],[0,0.5,0]];shape=mxgraph.bpmn.event;html=1;verticalLabelPosition=bottom;labelBackgroundColor=#ffffff;verticalAlign=top;align=center;perimeter=ellipsePerimeter;outlineConnect=0;aspect=fixed;outline=end;symbol=terminate2;fontSize=25;fillColor=#f8cecc;strokeColor=#b85450;" vertex="1" parent="6HgxVARiSFyIYE2zhFv--2">
          <mxGeometry x="1305" y="321" width="50" height="50" as="geometry" />
        </mxCell>
        <mxCell id="hJShWmBs0dNSn38TEw8a-78" value="" style="edgeStyle=orthogonalEdgeStyle;rounded=0;orthogonalLoop=1;jettySize=auto;html=1;entryX=0;entryY=0.5;entryDx=0;entryDy=0;entryPerimeter=0;fontSize=25;endArrow=none;" edge="1" parent="6HgxVARiSFyIYE2zhFv--2" source="6HgxVARiSFyIYE2zhFv--121" target="6HgxVARiSFyIYE2zhFv--130">
          <mxGeometry relative="1" as="geometry">
            <mxPoint x="1240" y="1986" as="sourcePoint" />
            <mxPoint x="1533" y="2061" as="targetPoint" />
          </mxGeometry>
        </mxCell>
        <mxCell id="6HgxVARiSFyIYE2zhFv--130" value="Notificar al &lt;br&gt;acudiente" style="points=[[0.145,0.145,0],[0.5,0,0],[0.855,0.145,0],[1,0.5,0],[0.855,0.855,0],[0.5,1,0],[0.145,0.855,0],[0,0.5,0]];shape=mxgraph.bpmn.event;html=1;verticalLabelPosition=bottom;labelBackgroundColor=#ffffff;verticalAlign=top;align=center;perimeter=ellipsePerimeter;outlineConnect=0;aspect=fixed;outline=end;symbol=message;fontSize=25;fillColor=#d5e8d4;strokeColor=#82b366;" vertex="1" parent="6HgxVARiSFyIYE2zhFv--2">
          <mxGeometry x="1148" y="221" width="50" height="50" as="geometry" />
        </mxCell>
        <mxCell id="6HgxVARiSFyIYE2zhFv--561" style="edgeStyle=orthogonalEdgeStyle;rounded=0;orthogonalLoop=1;jettySize=auto;html=1;entryX=0.613;entryY=-0.008;entryDx=0;entryDy=0;entryPerimeter=0;fontSize=25;startArrow=none;startFill=0;endArrow=classic;endFill=1;" edge="1" parent="6HgxVARiSFyIYE2zhFv--3" source="6HgxVARiSFyIYE2zhFv--18" target="6HgxVARiSFyIYE2zhFv--54">
          <mxGeometry relative="1" as="geometry">
            <Array as="points">
              <mxPoint x="538" y="250" />
              <mxPoint x="385" y="250" />
            </Array>
          </mxGeometry>
        </mxCell>
        <mxCell id="6HgxVARiSFyIYE2zhFv--562" style="edgeStyle=orthogonalEdgeStyle;rounded=0;orthogonalLoop=1;jettySize=auto;html=1;entryX=0.5;entryY=0;entryDx=0;entryDy=0;entryPerimeter=0;fontSize=25;startArrow=none;startFill=0;endArrow=classic;endFill=1;" edge="1" parent="6HgxVARiSFyIYE2zhFv--3" source="6HgxVARiSFyIYE2zhFv--20" target="xrwIqNAE4D9LLXo166CW-60">
          <mxGeometry relative="1" as="geometry">
            <Array as="points">
              <mxPoint x="773" y="570" />
              <mxPoint x="425" y="570" />
            </Array>
          </mxGeometry>
        </mxCell>
        <mxCell id="6HgxVARiSFyIYE2zhFv--564" style="edgeStyle=orthogonalEdgeStyle;rounded=0;orthogonalLoop=1;jettySize=auto;html=1;fontSize=25;startArrow=none;startFill=0;endArrow=classic;endFill=1;" edge="1" parent="6HgxVARiSFyIYE2zhFv--3" source="6HgxVARiSFyIYE2zhFv--24" target="6HgxVARiSFyIYE2zhFv--91">
          <mxGeometry relative="1" as="geometry">
            <Array as="points">
              <mxPoint x="1550" y="200" />
              <mxPoint x="1640" y="200" />
              <mxPoint x="1640" y="1620" />
              <mxPoint x="461" y="1620" />
            </Array>
          </mxGeometry>
        </mxCell>
        <mxCell id="6HgxVARiSFyIYE2zhFv--565" style="edgeStyle=orthogonalEdgeStyle;rounded=0;orthogonalLoop=1;jettySize=auto;html=1;fontSize=25;startArrow=none;startFill=0;endArrow=classic;endFill=1;" edge="1" parent="6HgxVARiSFyIYE2zhFv--3" source="6HgxVARiSFyIYE2zhFv--26" target="6HgxVARiSFyIYE2zhFv--94">
          <mxGeometry relative="1" as="geometry">
            <Array as="points">
              <mxPoint x="1790" y="1650" />
              <mxPoint x="338" y="1650" />
            </Array>
          </mxGeometry>
        </mxCell>
        <mxCell id="hJShWmBs0dNSn38TEw8a-17" style="edgeStyle=orthogonalEdgeStyle;rounded=0;orthogonalLoop=1;jettySize=auto;html=1;exitX=0.5;exitY=1;exitDx=0;exitDy=0;exitPerimeter=0;entryX=0.5;entryY=0;entryDx=0;entryDy=0;entryPerimeter=0;" edge="1" parent="6HgxVARiSFyIYE2zhFv--3" source="hJShWmBs0dNSn38TEw8a-1" target="hJShWmBs0dNSn38TEw8a-4">
          <mxGeometry relative="1" as="geometry">
            <mxPoint x="591" y="1174.9999999999982" as="targetPoint" />
            <Array as="points">
              <mxPoint x="1322" y="230" />
              <mxPoint x="1580" y="230" />
              <mxPoint x="1580" y="1070" />
              <mxPoint x="371" y="1070" />
            </Array>
          </mxGeometry>
        </mxCell>
        <mxCell id="xrwIqNAE4D9LLXo166CW-66" style="edgeStyle=orthogonalEdgeStyle;rounded=0;orthogonalLoop=1;jettySize=auto;html=1;exitX=0.5;exitY=1;exitDx=0;exitDy=0;exitPerimeter=0;entryX=0.5;entryY=1;entryDx=0;entryDy=0;entryPerimeter=0;" edge="1" parent="6HgxVARiSFyIYE2zhFv--3" source="xrwIqNAE4D9LLXo166CW-63" target="N2e0LCqrp00PIFlCkm0e-2">
          <mxGeometry relative="1" as="geometry">
            <Array as="points">
              <mxPoint x="1050" y="930" />
              <mxPoint x="368" y="930" />
            </Array>
          </mxGeometry>
        </mxCell>
        <mxCell id="6HgxVARiSFyIYE2zhFv--347" value="&lt;font size=&quot;1&quot;&gt;&lt;b style=&quot;font-size: 24px;&quot;&gt;HERO KIDS&lt;/b&gt;&lt;/font&gt;" style="swimlane;html=1;startSize=60;fontStyle=0;collapsible=0;horizontal=0;swimlaneLine=1;swimlaneFillColor=#ffffff;strokeWidth=2;whiteSpace=wrap;" vertex="1" parent="1">
          <mxGeometry x="160" y="3048" width="2090" height="2432" as="geometry" />
        </mxCell>
        <mxCell id="6HgxVARiSFyIYE2zhFv--348" value="&lt;span style=&quot;font-size: 22px;&quot;&gt;&lt;b&gt;ACUDIENTE&lt;br&gt;&lt;/b&gt;&lt;/span&gt;" style="swimlane;html=1;startSize=60;fontStyle=0;collapsible=0;horizontal=0;swimlaneLine=1;swimlaneFillColor=#ffffff;strokeWidth=2;whiteSpace=wrap;fillColor=#FFFFFF;" vertex="1" parent="6HgxVARiSFyIYE2zhFv--347">
          <mxGeometry x="60.5" width="2028.5" height="800" as="geometry" />
        </mxCell>
        <mxCell id="6HgxVARiSFyIYE2zhFv--349" style="edgeStyle=orthogonalEdgeStyle;rounded=0;orthogonalLoop=1;jettySize=auto;html=1;entryX=0;entryY=0.5;entryDx=0;entryDy=0;entryPerimeter=0;fontSize=19;" edge="1" parent="6HgxVARiSFyIYE2zhFv--348" source="6HgxVARiSFyIYE2zhFv--350" target="6HgxVARiSFyIYE2zhFv--352">
          <mxGeometry relative="1" as="geometry" />
        </mxCell>
        <mxCell id="6HgxVARiSFyIYE2zhFv--350" value="" style="points=[[0.145,0.145,0],[0.5,0,0],[0.855,0.145,0],[1,0.5,0],[0.855,0.855,0],[0.5,1,0],[0.145,0.855,0],[0,0.5,0]];shape=mxgraph.bpmn.event;html=1;verticalLabelPosition=bottom;labelBackgroundColor=#ffffff;verticalAlign=top;align=center;perimeter=ellipsePerimeter;outlineConnect=0;aspect=fixed;outline=end;symbol=terminate2;fontSize=19;fillColor=#d5e8d4;strokeColor=#82b366;" vertex="1" parent="6HgxVARiSFyIYE2zhFv--348">
          <mxGeometry x="87" y="280" width="50" height="50" as="geometry" />
        </mxCell>
        <mxCell id="6HgxVARiSFyIYE2zhFv--351" style="edgeStyle=orthogonalEdgeStyle;rounded=0;orthogonalLoop=1;jettySize=auto;html=1;fontSize=25;" edge="1" parent="6HgxVARiSFyIYE2zhFv--348" source="6HgxVARiSFyIYE2zhFv--352" target="6HgxVARiSFyIYE2zhFv--354">
          <mxGeometry relative="1" as="geometry" />
        </mxCell>
        <mxCell id="6HgxVARiSFyIYE2zhFv--352" value="Ingresar con usuario y contraseña" style="points=[[0.25,0,0],[0.5,0,0],[0.75,0,0],[1,0.25,0],[1,0.5,0],[1,0.75,0],[0.75,1,0],[0.5,1,0],[0.25,1,0],[0,0.75,0],[0,0.5,0],[0,0.25,0]];shape=mxgraph.bpmn.task;whiteSpace=wrap;rectStyle=rounded;size=10;html=1;taskMarker=abstract;fontSize=19;fillColor=#dae8fc;strokeColor=#6c8ebf;" vertex="1" parent="6HgxVARiSFyIYE2zhFv--348">
          <mxGeometry x="217" y="265" width="120" height="80" as="geometry" />
        </mxCell>
        <mxCell id="6HgxVARiSFyIYE2zhFv--353" style="edgeStyle=orthogonalEdgeStyle;rounded=0;orthogonalLoop=1;jettySize=auto;html=1;entryX=0;entryY=0.5;entryDx=0;entryDy=0;entryPerimeter=0;fontSize=25;" edge="1" parent="6HgxVARiSFyIYE2zhFv--348" source="6HgxVARiSFyIYE2zhFv--354" target="6HgxVARiSFyIYE2zhFv--356">
          <mxGeometry relative="1" as="geometry" />
        </mxCell>
        <mxCell id="6HgxVARiSFyIYE2zhFv--354" value="Visualizar el personal activo en el jardin" style="points=[[0.25,0,0],[0.5,0,0],[0.75,0,0],[1,0.25,0],[1,0.5,0],[1,0.75,0],[0.75,1,0],[0.5,1,0],[0.25,1,0],[0,0.75,0],[0,0.5,0],[0,0.25,0]];shape=mxgraph.bpmn.task;whiteSpace=wrap;rectStyle=rounded;size=10;html=1;taskMarker=abstract;fontSize=19;fillColor=#dae8fc;strokeColor=#6c8ebf;" vertex="1" parent="6HgxVARiSFyIYE2zhFv--348">
          <mxGeometry x="407" y="260" width="170" height="90" as="geometry" />
        </mxCell>
        <mxCell id="6HgxVARiSFyIYE2zhFv--470" style="edgeStyle=orthogonalEdgeStyle;rounded=0;orthogonalLoop=1;jettySize=auto;html=1;fontSize=25;" edge="1" parent="6HgxVARiSFyIYE2zhFv--348" source="6HgxVARiSFyIYE2zhFv--356" target="6HgxVARiSFyIYE2zhFv--469">
          <mxGeometry relative="1" as="geometry" />
        </mxCell>
        <mxCell id="6HgxVARiSFyIYE2zhFv--356" value="Acceder a la informacion personal de las directivas" style="points=[[0.25,0,0],[0.5,0,0],[0.75,0,0],[1,0.25,0],[1,0.5,0],[1,0.75,0],[0.75,1,0],[0.5,1,0],[0.25,1,0],[0,0.75,0],[0,0.5,0],[0,0.25,0]];shape=mxgraph.bpmn.task;whiteSpace=wrap;rectStyle=rounded;size=10;html=1;taskMarker=abstract;fontSize=19;fillColor=#dae8fc;strokeColor=#6c8ebf;" vertex="1" parent="6HgxVARiSFyIYE2zhFv--348">
          <mxGeometry x="647" y="260" width="170" height="90" as="geometry" />
        </mxCell>
        <mxCell id="6HgxVARiSFyIYE2zhFv--508" style="edgeStyle=orthogonalEdgeStyle;rounded=0;orthogonalLoop=1;jettySize=auto;html=1;entryX=0;entryY=0.5;entryDx=0;entryDy=0;entryPerimeter=0;fontSize=25;" edge="1" parent="6HgxVARiSFyIYE2zhFv--348" source="6HgxVARiSFyIYE2zhFv--362" target="6HgxVARiSFyIYE2zhFv--506">
          <mxGeometry relative="1" as="geometry" />
        </mxCell>
        <mxCell id="6HgxVARiSFyIYE2zhFv--362" value="Observar las actividades&amp;nbsp;" style="points=[[0.25,0,0],[0.5,0,0],[0.75,0,0],[1,0.25,0],[1,0.5,0],[1,0.75,0],[0.75,1,0],[0.5,1,0],[0.25,1,0],[0,0.75,0],[0,0.5,0],[0,0.25,0]];shape=mxgraph.bpmn.task;whiteSpace=wrap;rectStyle=rounded;size=10;html=1;taskMarker=abstract;fontSize=19;fillColor=#dae8fc;strokeColor=#6c8ebf;" vertex="1" parent="6HgxVARiSFyIYE2zhFv--348">
          <mxGeometry x="1360.5" y="430" width="160" height="80" as="geometry" />
        </mxCell>
        <mxCell id="6HgxVARiSFyIYE2zhFv--366" value="" style="points=[[0.145,0.145,0],[0.5,0,0],[0.855,0.145,0],[1,0.5,0],[0.855,0.855,0],[0.5,1,0],[0.145,0.855,0],[0,0.5,0]];shape=mxgraph.bpmn.event;html=1;verticalLabelPosition=bottom;labelBackgroundColor=#ffffff;verticalAlign=top;align=center;perimeter=ellipsePerimeter;outlineConnect=0;aspect=fixed;outline=end;symbol=terminate2;fontSize=25;fillColor=#f8cecc;strokeColor=#b85450;" vertex="1" parent="6HgxVARiSFyIYE2zhFv--348">
          <mxGeometry x="1683.5" y="160" width="50" height="50" as="geometry" />
        </mxCell>
        <mxCell id="6HgxVARiSFyIYE2zhFv--472" style="edgeStyle=orthogonalEdgeStyle;rounded=0;orthogonalLoop=1;jettySize=auto;html=1;entryX=0;entryY=0.5;entryDx=0;entryDy=0;entryPerimeter=0;fontSize=25;" edge="1" parent="6HgxVARiSFyIYE2zhFv--348" source="6HgxVARiSFyIYE2zhFv--469" target="6HgxVARiSFyIYE2zhFv--471">
          <mxGeometry relative="1" as="geometry">
            <Array as="points">
              <mxPoint x="939" y="185" />
            </Array>
          </mxGeometry>
        </mxCell>
        <mxCell id="6HgxVARiSFyIYE2zhFv--484" style="edgeStyle=orthogonalEdgeStyle;rounded=0;orthogonalLoop=1;jettySize=auto;html=1;entryX=0;entryY=0.5;entryDx=0;entryDy=0;entryPerimeter=0;fontSize=25;" edge="1" parent="6HgxVARiSFyIYE2zhFv--348" source="6HgxVARiSFyIYE2zhFv--469" target="6HgxVARiSFyIYE2zhFv--483">
          <mxGeometry relative="1" as="geometry">
            <Array as="points">
              <mxPoint x="939" y="475" />
            </Array>
          </mxGeometry>
        </mxCell>
        <mxCell id="6HgxVARiSFyIYE2zhFv--469" value="Seleccionar" style="points=[[0.25,0.25,0],[0.5,0,0],[0.75,0.25,0],[1,0.5,0],[0.75,0.75,0],[0.5,1,0],[0.25,0.75,0],[0,0.5,0]];shape=mxgraph.bpmn.gateway2;html=1;verticalLabelPosition=bottom;labelBackgroundColor=#ffffff;verticalAlign=top;align=center;perimeter=rhombusPerimeter;outlineConnect=0;outline=none;symbol=none;fontSize=25;fillColor=#fff2cc;strokeColor=#d6b656;" vertex="1" parent="6HgxVARiSFyIYE2zhFv--348">
          <mxGeometry x="899" y="260" width="80" height="90" as="geometry" />
        </mxCell>
        <mxCell id="6HgxVARiSFyIYE2zhFv--486" value="" style="edgeStyle=orthogonalEdgeStyle;rounded=0;orthogonalLoop=1;jettySize=auto;html=1;fontSize=25;" edge="1" parent="6HgxVARiSFyIYE2zhFv--348" source="6HgxVARiSFyIYE2zhFv--471">
          <mxGeometry relative="1" as="geometry">
            <mxPoint x="1208.9999999999995" y="185" as="targetPoint" />
          </mxGeometry>
        </mxCell>
        <mxCell id="6HgxVARiSFyIYE2zhFv--471" value="Ingresar tramites" style="points=[[0.25,0,0],[0.5,0,0],[0.75,0,0],[1,0.25,0],[1,0.5,0],[1,0.75,0],[0.75,1,0],[0.5,1,0],[0.25,1,0],[0,0.75,0],[0,0.5,0],[0,0.25,0]];shape=mxgraph.bpmn.task;whiteSpace=wrap;rectStyle=rounded;size=10;html=1;taskMarker=abstract;fontSize=19;fillColor=#dae8fc;strokeColor=#6c8ebf;" vertex="1" parent="6HgxVARiSFyIYE2zhFv--348">
          <mxGeometry x="999" y="140" width="121" height="90" as="geometry" />
        </mxCell>
        <mxCell id="6HgxVARiSFyIYE2zhFv--494" value="" style="edgeStyle=orthogonalEdgeStyle;rounded=0;orthogonalLoop=1;jettySize=auto;html=1;fontSize=25;" edge="1" parent="6HgxVARiSFyIYE2zhFv--348" source="6HgxVARiSFyIYE2zhFv--483">
          <mxGeometry relative="1" as="geometry">
            <mxPoint x="1208.9999999999995" y="475" as="targetPoint" />
          </mxGeometry>
        </mxCell>
        <mxCell id="6HgxVARiSFyIYE2zhFv--483" value="Ingresar registro" style="points=[[0.25,0,0],[0.5,0,0],[0.75,0,0],[1,0.25,0],[1,0.5,0],[1,0.75,0],[0.75,1,0],[0.5,1,0],[0.25,1,0],[0,0.75,0],[0,0.5,0],[0,0.25,0]];shape=mxgraph.bpmn.task;whiteSpace=wrap;rectStyle=rounded;size=10;html=1;taskMarker=abstract;fontSize=19;fillColor=#dae8fc;strokeColor=#6c8ebf;" vertex="1" parent="6HgxVARiSFyIYE2zhFv--348">
          <mxGeometry x="999" y="430" width="121" height="90" as="geometry" />
        </mxCell>
        <mxCell id="hJShWmBs0dNSn38TEw8a-34" value="" style="edgeStyle=orthogonalEdgeStyle;rounded=0;orthogonalLoop=1;jettySize=auto;html=1;" edge="1" parent="6HgxVARiSFyIYE2zhFv--348" source="6HgxVARiSFyIYE2zhFv--487" target="hJShWmBs0dNSn38TEw8a-33">
          <mxGeometry relative="1" as="geometry" />
        </mxCell>
        <mxCell id="6HgxVARiSFyIYE2zhFv--487" value="Solicitar cupos" style="points=[[0.25,0,0],[0.5,0,0],[0.75,0,0],[1,0.25,0],[1,0.5,0],[1,0.75,0],[0.75,1,0],[0.5,1,0],[0.25,1,0],[0,0.75,0],[0,0.5,0],[0,0.25,0]];shape=mxgraph.bpmn.task;whiteSpace=wrap;rectStyle=rounded;size=10;html=1;taskMarker=abstract;fontSize=19;fillColor=#dae8fc;strokeColor=#6c8ebf;" vertex="1" parent="6HgxVARiSFyIYE2zhFv--348">
          <mxGeometry x="1210.5" y="140" width="121" height="90" as="geometry" />
        </mxCell>
        <mxCell id="6HgxVARiSFyIYE2zhFv--498" style="edgeStyle=orthogonalEdgeStyle;rounded=0;orthogonalLoop=1;jettySize=auto;html=1;fontSize=25;" edge="1" parent="6HgxVARiSFyIYE2zhFv--348" source="6HgxVARiSFyIYE2zhFv--496" target="6HgxVARiSFyIYE2zhFv--362">
          <mxGeometry relative="1" as="geometry" />
        </mxCell>
        <mxCell id="6HgxVARiSFyIYE2zhFv--496" value="Revisar&amp;nbsp;&lt;br&gt;notificación" style="points=[[0.145,0.145,0],[0.5,0,0],[0.855,0.145,0],[1,0.5,0],[0.855,0.855,0],[0.5,1,0],[0.145,0.855,0],[0,0.5,0]];shape=mxgraph.bpmn.event;html=1;verticalLabelPosition=bottom;labelBackgroundColor=#ffffff;verticalAlign=top;align=center;perimeter=ellipsePerimeter;outlineConnect=0;aspect=fixed;outline=standard;symbol=message;fontSize=25;fillColor=#d5e8d4;strokeColor=#82b366;" vertex="1" parent="6HgxVARiSFyIYE2zhFv--348">
          <mxGeometry x="1210.5" y="445" width="50" height="50" as="geometry" />
        </mxCell>
        <mxCell id="6HgxVARiSFyIYE2zhFv--506" value="" style="points=[[0.145,0.145,0],[0.5,0,0],[0.855,0.145,0],[1,0.5,0],[0.855,0.855,0],[0.5,1,0],[0.145,0.855,0],[0,0.5,0]];shape=mxgraph.bpmn.event;html=1;verticalLabelPosition=bottom;labelBackgroundColor=#ffffff;verticalAlign=top;align=center;perimeter=ellipsePerimeter;outlineConnect=0;aspect=fixed;outline=end;symbol=terminate2;fontSize=25;fillColor=#f8cecc;strokeColor=#b85450;" vertex="1" parent="6HgxVARiSFyIYE2zhFv--348">
          <mxGeometry x="1591.5" y="445" width="50" height="50" as="geometry" />
        </mxCell>
        <mxCell id="hJShWmBs0dNSn38TEw8a-35" value="" style="edgeStyle=orthogonalEdgeStyle;rounded=0;orthogonalLoop=1;jettySize=auto;html=1;" edge="1" parent="6HgxVARiSFyIYE2zhFv--348" source="hJShWmBs0dNSn38TEw8a-33" target="6HgxVARiSFyIYE2zhFv--366">
          <mxGeometry relative="1" as="geometry" />
        </mxCell>
        <mxCell id="hJShWmBs0dNSn38TEw8a-33" value="Realizar citación" style="points=[[0.25,0,0],[0.5,0,0],[0.75,0,0],[1,0.25,0],[1,0.5,0],[1,0.75,0],[0.75,1,0],[0.5,1,0],[0.25,1,0],[0,0.75,0],[0,0.5,0],[0,0.25,0]];shape=mxgraph.bpmn.task;whiteSpace=wrap;rectStyle=rounded;size=10;html=1;taskMarker=abstract;fontSize=19;fillColor=#dae8fc;strokeColor=#6c8ebf;" vertex="1" parent="6HgxVARiSFyIYE2zhFv--348">
          <mxGeometry x="1420.5" y="145" width="160" height="80" as="geometry" />
        </mxCell>
        <mxCell id="6HgxVARiSFyIYE2zhFv--367" value="&lt;b&gt;&lt;font style=&quot;font-size: 22px;&quot;&gt;MÓDULO GESTIÓN USUARIOS&lt;/font&gt;&lt;/b&gt;" style="swimlane;html=1;startSize=60;fontStyle=0;collapsible=0;horizontal=0;swimlaneLine=1;swimlaneFillColor=#ffffff;strokeWidth=2;whiteSpace=wrap;fillColor=#FFFFFF;" vertex="1" parent="6HgxVARiSFyIYE2zhFv--347">
          <mxGeometry x="61.5" y="800" width="2028.5" height="460" as="geometry" />
        </mxCell>
        <mxCell id="6HgxVARiSFyIYE2zhFv--519" style="edgeStyle=orthogonalEdgeStyle;rounded=0;orthogonalLoop=1;jettySize=auto;html=1;entryX=0.5;entryY=1;entryDx=0;entryDy=0;entryPerimeter=0;fontSize=25;" edge="1" parent="6HgxVARiSFyIYE2zhFv--367" source="6HgxVARiSFyIYE2zhFv--387" target="6HgxVARiSFyIYE2zhFv--407">
          <mxGeometry relative="1" as="geometry" />
        </mxCell>
        <mxCell id="6HgxVARiSFyIYE2zhFv--387" value="Informar datos personales de las directivas" style="points=[[0.25,0,0],[0.5,0,0],[0.75,0,0],[1,0.25,0],[1,0.5,0],[1,0.75,0],[0.75,1,0],[0.5,1,0],[0.25,1,0],[0,0.75,0],[0,0.5,0],[0,0.25,0]];shape=mxgraph.bpmn.task;whiteSpace=wrap;rectStyle=rounded;size=10;html=1;taskMarker=abstract;fontSize=19;fillColor=#dae8fc;strokeColor=#6c8ebf;" vertex="1" parent="6HgxVARiSFyIYE2zhFv--367">
          <mxGeometry x="458.5" y="160" width="150" height="110" as="geometry" />
        </mxCell>
        <mxCell id="6HgxVARiSFyIYE2zhFv--407" value="" style="points=[[0.145,0.145,0],[0.5,0,0],[0.855,0.145,0],[1,0.5,0],[0.855,0.855,0],[0.5,1,0],[0.145,0.855,0],[0,0.5,0]];shape=mxgraph.bpmn.event;html=1;verticalLabelPosition=bottom;labelBackgroundColor=#ffffff;verticalAlign=top;align=center;perimeter=ellipsePerimeter;outlineConnect=0;aspect=fixed;outline=end;symbol=terminate2;fontSize=25;fillColor=#f8cecc;strokeColor=#b85450;rotation=0;direction=south;" vertex="1" parent="6HgxVARiSFyIYE2zhFv--367">
          <mxGeometry x="708.5" y="190" width="50" height="50" as="geometry" />
        </mxCell>
        <mxCell id="6HgxVARiSFyIYE2zhFv--518" style="edgeStyle=orthogonalEdgeStyle;rounded=0;orthogonalLoop=1;jettySize=auto;html=1;fontSize=25;" edge="1" parent="6HgxVARiSFyIYE2zhFv--367" source="6HgxVARiSFyIYE2zhFv--511" target="6HgxVARiSFyIYE2zhFv--387">
          <mxGeometry relative="1" as="geometry" />
        </mxCell>
        <mxCell id="6HgxVARiSFyIYE2zhFv--511" value="Mostrar el personal activo en el jardín" style="points=[[0.25,0,0],[0.5,0,0],[0.75,0,0],[1,0.25,0],[1,0.5,0],[1,0.75,0],[0.75,1,0],[0.5,1,0],[0.25,1,0],[0,0.75,0],[0,0.5,0],[0,0.25,0]];shape=mxgraph.bpmn.task;whiteSpace=wrap;rectStyle=rounded;size=10;html=1;taskMarker=abstract;fontSize=19;fillColor=#dae8fc;strokeColor=#6c8ebf;" vertex="1" parent="6HgxVARiSFyIYE2zhFv--367">
          <mxGeometry x="177.5" y="160" width="150" height="110" as="geometry" />
        </mxCell>
        <mxCell id="6HgxVARiSFyIYE2zhFv--408" value="&lt;b&gt;&lt;font style=&quot;font-size: 26px;&quot;&gt;MÓDULO TRÁMITES&lt;/font&gt;&lt;/b&gt;" style="swimlane;html=1;startSize=59;fontStyle=0;collapsible=0;horizontal=0;swimlaneLine=1;swimlaneFillColor=#ffffff;strokeWidth=2;whiteSpace=wrap;" vertex="1" parent="6HgxVARiSFyIYE2zhFv--347">
          <mxGeometry x="61.5" y="1263" width="2028.5" height="527" as="geometry" />
        </mxCell>
        <mxCell id="6HgxVARiSFyIYE2zhFv--513" value="Diligenciar formulario" style="points=[[0.25,0,0],[0.5,0,0],[0.75,0,0],[1,0.25,0],[1,0.5,0],[1,0.75,0],[0.75,1,0],[0.5,1,0],[0.25,1,0],[0,0.75,0],[0,0.5,0],[0,0.25,0]];shape=mxgraph.bpmn.task;whiteSpace=wrap;rectStyle=rounded;size=10;html=1;taskMarker=abstract;fontSize=19;fillColor=#dae8fc;strokeColor=#6c8ebf;" vertex="1" parent="6HgxVARiSFyIYE2zhFv--408">
          <mxGeometry x="478.5" y="89" width="91" height="90" as="geometry" />
        </mxCell>
        <mxCell id="6HgxVARiSFyIYE2zhFv--515" value="Adjuntar documentos" style="points=[[0.25,0,0],[0.5,0,0],[0.75,0,0],[1,0.25,0],[1,0.5,0],[1,0.75,0],[0.75,1,0],[0.5,1,0],[0.25,1,0],[0,0.75,0],[0,0.5,0],[0,0.25,0]];shape=mxgraph.bpmn.task;whiteSpace=wrap;rectStyle=rounded;size=10;html=1;taskMarker=abstract;fontSize=19;fillColor=#dae8fc;strokeColor=#6c8ebf;" vertex="1" parent="6HgxVARiSFyIYE2zhFv--408">
          <mxGeometry x="646.5" y="87" width="110.5" height="92" as="geometry" />
        </mxCell>
        <mxCell id="6HgxVARiSFyIYE2zhFv--512" value="" style="edgeStyle=orthogonalEdgeStyle;rounded=0;orthogonalLoop=1;jettySize=auto;html=1;fontSize=25;" edge="1" parent="6HgxVARiSFyIYE2zhFv--408" source="6HgxVARiSFyIYE2zhFv--513" target="6HgxVARiSFyIYE2zhFv--515">
          <mxGeometry relative="1" as="geometry" />
        </mxCell>
        <mxCell id="mFgOGgwP3EiSZdVFmKhh-7" style="edgeStyle=orthogonalEdgeStyle;rounded=0;orthogonalLoop=1;jettySize=auto;html=1;entryX=0;entryY=0.5;entryDx=0;entryDy=0;entryPerimeter=0;" edge="1" parent="6HgxVARiSFyIYE2zhFv--408" source="6HgxVARiSFyIYE2zhFv--516" target="A3xHUpBDQqubrqk8rHVJ-15">
          <mxGeometry relative="1" as="geometry" />
        </mxCell>
        <mxCell id="6HgxVARiSFyIYE2zhFv--516" value="Enviar solicitud" style="points=[[0.25,0,0],[0.5,0,0],[0.75,0,0],[1,0.25,0],[1,0.5,0],[1,0.75,0],[0.75,1,0],[0.5,1,0],[0.25,1,0],[0,0.75,0],[0,0.5,0],[0,0.25,0]];shape=mxgraph.bpmn.task;whiteSpace=wrap;rectStyle=rounded;size=10;html=1;taskMarker=abstract;fontSize=19;fillColor=#dae8fc;strokeColor=#6c8ebf;" vertex="1" parent="6HgxVARiSFyIYE2zhFv--408">
          <mxGeometry x="820.5" y="87" width="91" height="90" as="geometry" />
        </mxCell>
        <mxCell id="6HgxVARiSFyIYE2zhFv--514" value="" style="edgeStyle=orthogonalEdgeStyle;rounded=0;orthogonalLoop=1;jettySize=auto;html=1;fontSize=25;" edge="1" parent="6HgxVARiSFyIYE2zhFv--408" source="6HgxVARiSFyIYE2zhFv--515" target="6HgxVARiSFyIYE2zhFv--516">
          <mxGeometry relative="1" as="geometry" />
        </mxCell>
        <mxCell id="A3xHUpBDQqubrqk8rHVJ-15" value="" style="points=[[0.145,0.145,0],[0.5,0,0],[0.855,0.145,0],[1,0.5,0],[0.855,0.855,0],[0.5,1,0],[0.145,0.855,0],[0,0.5,0]];shape=mxgraph.bpmn.event;html=1;verticalLabelPosition=bottom;labelBackgroundColor=#ffffff;verticalAlign=top;align=center;perimeter=ellipsePerimeter;outlineConnect=0;aspect=fixed;outline=end;symbol=terminate2;fontSize=25;fillColor=#f8cecc;strokeColor=#b85450;rotation=0;direction=south;" vertex="1" parent="6HgxVARiSFyIYE2zhFv--408">
          <mxGeometry x="1028.5" y="259" width="50" height="50" as="geometry" />
        </mxCell>
        <mxCell id="6HgxVARiSFyIYE2zhFv--556" style="edgeStyle=orthogonalEdgeStyle;rounded=0;orthogonalLoop=1;jettySize=auto;html=1;entryX=0;entryY=0.5;entryDx=0;entryDy=0;entryPerimeter=0;fontSize=25;" edge="1" parent="6HgxVARiSFyIYE2zhFv--408" source="6HgxVARiSFyIYE2zhFv--554">
          <mxGeometry relative="1" as="geometry">
            <mxPoint x="478.5" y="137" as="targetPoint" />
          </mxGeometry>
        </mxCell>
        <mxCell id="6HgxVARiSFyIYE2zhFv--554" value="Cupos" style="points=[[0.25,0,0],[0.5,0,0],[0.75,0,0],[1,0.25,0],[1,0.5,0],[1,0.75,0],[0.75,1,0],[0.5,1,0],[0.25,1,0],[0,0.75,0],[0,0.5,0],[0,0.25,0]];shape=mxgraph.bpmn.task;whiteSpace=wrap;rectStyle=rounded;size=10;html=1;taskMarker=abstract;fontSize=19;fillColor=#dae8fc;strokeColor=#6c8ebf;" vertex="1" parent="6HgxVARiSFyIYE2zhFv--408">
          <mxGeometry x="338.5" y="112" width="81.5" height="50" as="geometry" />
        </mxCell>
        <mxCell id="hJShWmBs0dNSn38TEw8a-19" style="edgeStyle=orthogonalEdgeStyle;rounded=0;orthogonalLoop=1;jettySize=auto;html=1;exitX=0.5;exitY=0;exitDx=0;exitDy=0;exitPerimeter=0;entryX=0;entryY=0.5;entryDx=0;entryDy=0;entryPerimeter=0;" edge="1" parent="6HgxVARiSFyIYE2zhFv--408" source="hJShWmBs0dNSn38TEw8a-18" target="6HgxVARiSFyIYE2zhFv--554">
          <mxGeometry relative="1" as="geometry" />
        </mxCell>
        <mxCell id="hJShWmBs0dNSn38TEw8a-21" style="edgeStyle=orthogonalEdgeStyle;rounded=0;orthogonalLoop=1;jettySize=auto;html=1;exitX=0.5;exitY=1;exitDx=0;exitDy=0;exitPerimeter=0;entryX=0;entryY=0.5;entryDx=0;entryDy=0;entryPerimeter=0;" edge="1" parent="6HgxVARiSFyIYE2zhFv--408" source="hJShWmBs0dNSn38TEw8a-18" target="hJShWmBs0dNSn38TEw8a-20">
          <mxGeometry relative="1" as="geometry" />
        </mxCell>
        <mxCell id="hJShWmBs0dNSn38TEw8a-18" value="Seleccionar" style="points=[[0.25,0.25,0],[0.5,0,0],[0.75,0.25,0],[1,0.5,0],[0.75,0.75,0],[0.5,1,0],[0.25,0.75,0],[0,0.5,0]];shape=mxgraph.bpmn.gateway2;html=1;verticalLabelPosition=bottom;labelBackgroundColor=#ffffff;verticalAlign=top;align=center;perimeter=rhombusPerimeter;outlineConnect=0;outline=none;symbol=none;fontSize=25;fillColor=#fff2cc;strokeColor=#d6b656;" vertex="1" parent="6HgxVARiSFyIYE2zhFv--408">
          <mxGeometry x="128.5" y="177" width="80" height="90" as="geometry" />
        </mxCell>
        <mxCell id="hJShWmBs0dNSn38TEw8a-37" value="" style="edgeStyle=orthogonalEdgeStyle;rounded=0;orthogonalLoop=1;jettySize=auto;html=1;" edge="1" parent="6HgxVARiSFyIYE2zhFv--408" source="hJShWmBs0dNSn38TEw8a-20" target="hJShWmBs0dNSn38TEw8a-22">
          <mxGeometry relative="1" as="geometry" />
        </mxCell>
        <mxCell id="hJShWmBs0dNSn38TEw8a-20" value="Crear &lt;br&gt;citación" style="points=[[0.25,0,0],[0.5,0,0],[0.75,0,0],[1,0.25,0],[1,0.5,0],[1,0.75,0],[0.75,1,0],[0.5,1,0],[0.25,1,0],[0,0.75,0],[0,0.5,0],[0,0.25,0]];shape=mxgraph.bpmn.task;whiteSpace=wrap;rectStyle=rounded;size=10;html=1;taskMarker=abstract;fontSize=19;fillColor=#dae8fc;strokeColor=#6c8ebf;" vertex="1" parent="6HgxVARiSFyIYE2zhFv--408">
          <mxGeometry x="317" y="349" width="103" height="50" as="geometry" />
        </mxCell>
        <mxCell id="hJShWmBs0dNSn38TEw8a-27" style="edgeStyle=orthogonalEdgeStyle;rounded=0;orthogonalLoop=1;jettySize=auto;html=1;exitX=0.5;exitY=0;exitDx=0;exitDy=0;exitPerimeter=0;entryX=0;entryY=0.5;entryDx=0;entryDy=0;entryPerimeter=0;" edge="1" parent="6HgxVARiSFyIYE2zhFv--408" source="hJShWmBs0dNSn38TEw8a-22" target="hJShWmBs0dNSn38TEw8a-25">
          <mxGeometry relative="1" as="geometry" />
        </mxCell>
        <mxCell id="hJShWmBs0dNSn38TEw8a-28" style="edgeStyle=orthogonalEdgeStyle;rounded=0;orthogonalLoop=1;jettySize=auto;html=1;exitX=1;exitY=0.5;exitDx=0;exitDy=0;exitPerimeter=0;" edge="1" parent="6HgxVARiSFyIYE2zhFv--408" source="hJShWmBs0dNSn38TEw8a-22" target="hJShWmBs0dNSn38TEw8a-26">
          <mxGeometry relative="1" as="geometry" />
        </mxCell>
        <mxCell id="hJShWmBs0dNSn38TEw8a-29" style="edgeStyle=orthogonalEdgeStyle;rounded=0;orthogonalLoop=1;jettySize=auto;html=1;exitX=0.5;exitY=1;exitDx=0;exitDy=0;exitPerimeter=0;entryX=0;entryY=0.5;entryDx=0;entryDy=0;entryPerimeter=0;" edge="1" parent="6HgxVARiSFyIYE2zhFv--408" source="hJShWmBs0dNSn38TEw8a-22" target="hJShWmBs0dNSn38TEw8a-24">
          <mxGeometry relative="1" as="geometry" />
        </mxCell>
        <mxCell id="hJShWmBs0dNSn38TEw8a-22" value="Seleccionar" style="points=[[0.25,0.25,0],[0.5,0,0],[0.75,0.25,0],[1,0.5,0],[0.75,0.75,0],[0.5,1,0],[0.25,0.75,0],[0,0.5,0]];shape=mxgraph.bpmn.gateway2;html=1;verticalLabelPosition=bottom;labelBackgroundColor=#ffffff;verticalAlign=top;align=center;perimeter=rhombusPerimeter;outlineConnect=0;outline=none;symbol=none;fontSize=25;fillColor=#fff2cc;strokeColor=#d6b656;" vertex="1" parent="6HgxVARiSFyIYE2zhFv--408">
          <mxGeometry x="498.5" y="329" width="80" height="90" as="geometry" />
        </mxCell>
        <mxCell id="hJShWmBs0dNSn38TEw8a-32" style="edgeStyle=orthogonalEdgeStyle;rounded=0;orthogonalLoop=1;jettySize=auto;html=1;exitX=1;exitY=0.5;exitDx=0;exitDy=0;exitPerimeter=0;entryX=0.5;entryY=0;entryDx=0;entryDy=0;entryPerimeter=0;" edge="1" parent="6HgxVARiSFyIYE2zhFv--408" source="hJShWmBs0dNSn38TEw8a-24" target="A3xHUpBDQqubrqk8rHVJ-15">
          <mxGeometry relative="1" as="geometry" />
        </mxCell>
        <mxCell id="hJShWmBs0dNSn38TEw8a-24" value="Eliminar&lt;br&gt;citación" style="points=[[0.25,0,0],[0.5,0,0],[0.75,0,0],[1,0.25,0],[1,0.5,0],[1,0.75,0],[0.75,1,0],[0.5,1,0],[0.25,1,0],[0,0.75,0],[0,0.5,0],[0,0.25,0]];shape=mxgraph.bpmn.task;whiteSpace=wrap;rectStyle=rounded;size=10;html=1;taskMarker=abstract;fontSize=19;fillColor=#dae8fc;strokeColor=#6c8ebf;" vertex="1" parent="6HgxVARiSFyIYE2zhFv--408">
          <mxGeometry x="668.5" y="449" width="103" height="50" as="geometry" />
        </mxCell>
        <mxCell id="hJShWmBs0dNSn38TEw8a-31" style="edgeStyle=orthogonalEdgeStyle;rounded=0;orthogonalLoop=1;jettySize=auto;html=1;exitX=1;exitY=0.5;exitDx=0;exitDy=0;exitPerimeter=0;entryX=1;entryY=0.5;entryDx=0;entryDy=0;entryPerimeter=0;" edge="1" parent="6HgxVARiSFyIYE2zhFv--408" source="hJShWmBs0dNSn38TEw8a-26" target="A3xHUpBDQqubrqk8rHVJ-15">
          <mxGeometry relative="1" as="geometry" />
        </mxCell>
        <mxCell id="hJShWmBs0dNSn38TEw8a-26" value="Modifica citación" style="points=[[0.25,0,0],[0.5,0,0],[0.75,0,0],[1,0.25,0],[1,0.5,0],[1,0.75,0],[0.75,1,0],[0.5,1,0],[0.25,1,0],[0,0.75,0],[0,0.5,0],[0,0.25,0]];shape=mxgraph.bpmn.task;whiteSpace=wrap;rectStyle=rounded;size=10;html=1;taskMarker=abstract;fontSize=19;fillColor=#dae8fc;strokeColor=#6c8ebf;" vertex="1" parent="6HgxVARiSFyIYE2zhFv--408">
          <mxGeometry x="658.5" y="349" width="103" height="50" as="geometry" />
        </mxCell>
        <mxCell id="hJShWmBs0dNSn38TEw8a-30" style="edgeStyle=orthogonalEdgeStyle;rounded=0;orthogonalLoop=1;jettySize=auto;html=1;exitX=1;exitY=0.5;exitDx=0;exitDy=0;exitPerimeter=0;entryX=0.5;entryY=1;entryDx=0;entryDy=0;entryPerimeter=0;" edge="1" parent="6HgxVARiSFyIYE2zhFv--408" source="hJShWmBs0dNSn38TEw8a-25" target="A3xHUpBDQqubrqk8rHVJ-15">
          <mxGeometry relative="1" as="geometry" />
        </mxCell>
        <mxCell id="hJShWmBs0dNSn38TEw8a-25" value="Observar citacion" style="points=[[0.25,0,0],[0.5,0,0],[0.75,0,0],[1,0.25,0],[1,0.5,0],[1,0.75,0],[0.75,1,0],[0.5,1,0],[0.25,1,0],[0,0.75,0],[0,0.5,0],[0,0.25,0]];shape=mxgraph.bpmn.task;whiteSpace=wrap;rectStyle=rounded;size=10;html=1;taskMarker=abstract;fontSize=19;fillColor=#dae8fc;strokeColor=#6c8ebf;" vertex="1" parent="6HgxVARiSFyIYE2zhFv--408">
          <mxGeometry x="666.5" y="277" width="103" height="50" as="geometry" />
        </mxCell>
        <mxCell id="6HgxVARiSFyIYE2zhFv--419" value="&lt;b style=&quot;&quot;&gt;&lt;font style=&quot;font-size: 25px;&quot;&gt;MÓDULO CALENDARIO&lt;/font&gt;&lt;/b&gt;" style="swimlane;html=1;startSize=59;fontStyle=0;collapsible=0;horizontal=0;swimlaneLine=1;swimlaneFillColor=#ffffff;strokeWidth=2;whiteSpace=wrap;" vertex="1" parent="6HgxVARiSFyIYE2zhFv--347">
          <mxGeometry x="61.5" y="1795" width="2028.5" height="637" as="geometry" />
        </mxCell>
        <mxCell id="6HgxVARiSFyIYE2zhFv--423" value="" style="edgeStyle=orthogonalEdgeStyle;rounded=0;orthogonalLoop=1;jettySize=auto;html=1;fontSize=25;" edge="1" parent="6HgxVARiSFyIYE2zhFv--419" source="6HgxVARiSFyIYE2zhFv--424" target="6HgxVARiSFyIYE2zhFv--435">
          <mxGeometry relative="1" as="geometry" />
        </mxCell>
        <mxCell id="6HgxVARiSFyIYE2zhFv--424" value="Ingresar calendario" style="points=[[0.25,0,0],[0.5,0,0],[0.75,0,0],[1,0.25,0],[1,0.5,0],[1,0.75,0],[0.75,1,0],[0.5,1,0],[0.25,1,0],[0,0.75,0],[0,0.5,0],[0,0.25,0]];shape=mxgraph.bpmn.task;whiteSpace=wrap;rectStyle=rounded;size=10;html=1;taskMarker=abstract;fontSize=19;fillColor=#dae8fc;strokeColor=#6c8ebf;" vertex="1" parent="6HgxVARiSFyIYE2zhFv--419">
          <mxGeometry x="200" y="200" width="150" height="110" as="geometry" />
        </mxCell>
        <mxCell id="6HgxVARiSFyIYE2zhFv--433" style="edgeStyle=orthogonalEdgeStyle;rounded=0;orthogonalLoop=1;jettySize=auto;html=1;entryX=0;entryY=0.5;entryDx=0;entryDy=0;entryPerimeter=0;fontSize=25;" edge="1" parent="6HgxVARiSFyIYE2zhFv--419" source="6HgxVARiSFyIYE2zhFv--435">
          <mxGeometry relative="1" as="geometry">
            <Array as="points">
              <mxPoint x="470" y="405" />
            </Array>
            <mxPoint x="610" y="405" as="targetPoint" />
          </mxGeometry>
        </mxCell>
        <mxCell id="6HgxVARiSFyIYE2zhFv--434" style="edgeStyle=orthogonalEdgeStyle;rounded=0;orthogonalLoop=1;jettySize=auto;html=1;entryX=0;entryY=0.5;entryDx=0;entryDy=0;entryPerimeter=0;fontSize=25;" edge="1" parent="6HgxVARiSFyIYE2zhFv--419" source="6HgxVARiSFyIYE2zhFv--435" target="6HgxVARiSFyIYE2zhFv--437">
          <mxGeometry relative="1" as="geometry">
            <Array as="points">
              <mxPoint x="470" y="154" />
            </Array>
          </mxGeometry>
        </mxCell>
        <mxCell id="6HgxVARiSFyIYE2zhFv--435" value="Elegir una &lt;br&gt;opción" style="points=[[0.25,0.25,0],[0.5,0,0],[0.75,0.25,0],[1,0.5,0],[0.75,0.75,0],[0.5,1,0],[0.25,0.75,0],[0,0.5,0]];shape=mxgraph.bpmn.gateway2;html=1;verticalLabelPosition=bottom;labelBackgroundColor=#ffffff;verticalAlign=top;align=center;perimeter=rhombusPerimeter;outlineConnect=0;outline=none;symbol=none;fontSize=25;fillColor=#fff2cc;strokeColor=#d6b656;" vertex="1" parent="6HgxVARiSFyIYE2zhFv--419">
          <mxGeometry x="430" y="209" width="80" height="90" as="geometry" />
        </mxCell>
        <mxCell id="6HgxVARiSFyIYE2zhFv--437" value="Mirar las actividades" style="points=[[0.25,0,0],[0.5,0,0],[0.75,0,0],[1,0.25,0],[1,0.5,0],[1,0.75,0],[0.75,1,0],[0.5,1,0],[0.25,1,0],[0,0.75,0],[0,0.5,0],[0,0.25,0]];shape=mxgraph.bpmn.task;whiteSpace=wrap;rectStyle=rounded;size=10;html=1;taskMarker=abstract;fontSize=19;fillColor=#dae8fc;strokeColor=#6c8ebf;" vertex="1" parent="6HgxVARiSFyIYE2zhFv--419">
          <mxGeometry x="600" y="99" width="150" height="110" as="geometry" />
        </mxCell>
        <mxCell id="6HgxVARiSFyIYE2zhFv--442" style="edgeStyle=orthogonalEdgeStyle;rounded=0;orthogonalLoop=1;jettySize=auto;html=1;entryX=0.5;entryY=0;entryDx=0;entryDy=0;entryPerimeter=0;fontSize=25;" edge="1" parent="6HgxVARiSFyIYE2zhFv--419" target="6HgxVARiSFyIYE2zhFv--450">
          <mxGeometry relative="1" as="geometry">
            <mxPoint x="748.5" y="154" as="sourcePoint" />
          </mxGeometry>
        </mxCell>
        <mxCell id="hJShWmBs0dNSn38TEw8a-40" style="edgeStyle=orthogonalEdgeStyle;rounded=0;orthogonalLoop=1;jettySize=auto;html=1;exitX=1;exitY=0.5;exitDx=0;exitDy=0;exitPerimeter=0;" edge="1" parent="6HgxVARiSFyIYE2zhFv--419" source="6HgxVARiSFyIYE2zhFv--445" target="hJShWmBs0dNSn38TEw8a-39">
          <mxGeometry relative="1" as="geometry" />
        </mxCell>
        <mxCell id="6HgxVARiSFyIYE2zhFv--445" value="Crear &lt;br&gt;evento" style="points=[[0.25,0,0],[0.5,0,0],[0.75,0,0],[1,0.25,0],[1,0.5,0],[1,0.75,0],[0.75,1,0],[0.5,1,0],[0.25,1,0],[0,0.75,0],[0,0.5,0],[0,0.25,0]];shape=mxgraph.bpmn.task;whiteSpace=wrap;rectStyle=rounded;size=10;html=1;taskMarker=abstract;fontSize=19;fillColor=#dae8fc;strokeColor=#6c8ebf;" vertex="1" parent="6HgxVARiSFyIYE2zhFv--419">
          <mxGeometry x="608.5" y="370" width="101.5" height="70" as="geometry" />
        </mxCell>
        <mxCell id="6HgxVARiSFyIYE2zhFv--446" value="Notificar al &lt;br&gt;docente" style="points=[[0.145,0.145,0],[0.5,0,0],[0.855,0.145,0],[1,0.5,0],[0.855,0.855,0],[0.5,1,0],[0.145,0.855,0],[0,0.5,0]];shape=mxgraph.bpmn.event;html=1;verticalLabelPosition=bottom;labelBackgroundColor=#ffffff;verticalAlign=top;align=center;perimeter=ellipsePerimeter;outlineConnect=0;aspect=fixed;outline=end;symbol=message;fontSize=25;fillColor=#d5e8d4;strokeColor=#82b366;" vertex="1" parent="6HgxVARiSFyIYE2zhFv--419">
          <mxGeometry x="1348.5" y="380" width="50" height="50" as="geometry" />
        </mxCell>
        <mxCell id="6HgxVARiSFyIYE2zhFv--448" style="edgeStyle=orthogonalEdgeStyle;rounded=0;orthogonalLoop=1;jettySize=auto;html=1;entryX=0;entryY=0.5;entryDx=0;entryDy=0;entryPerimeter=0;fontSize=25;" edge="1" parent="6HgxVARiSFyIYE2zhFv--419" source="6HgxVARiSFyIYE2zhFv--449" target="6HgxVARiSFyIYE2zhFv--446">
          <mxGeometry relative="1" as="geometry" />
        </mxCell>
        <mxCell id="6HgxVARiSFyIYE2zhFv--449" value="Asignar al calendario eventos" style="points=[[0.25,0,0],[0.5,0,0],[0.75,0,0],[1,0.25,0],[1,0.5,0],[1,0.75,0],[0.75,1,0],[0.5,1,0],[0.25,1,0],[0,0.75,0],[0,0.5,0],[0,0.25,0]];shape=mxgraph.bpmn.task;whiteSpace=wrap;rectStyle=rounded;size=10;html=1;taskMarker=abstract;fontSize=19;fillColor=#dae8fc;strokeColor=#6c8ebf;" vertex="1" parent="6HgxVARiSFyIYE2zhFv--419">
          <mxGeometry x="1090" y="365" width="178.5" height="80" as="geometry" />
        </mxCell>
        <mxCell id="6HgxVARiSFyIYE2zhFv--450" value="" style="points=[[0.145,0.145,0],[0.5,0,0],[0.855,0.145,0],[1,0.5,0],[0.855,0.855,0],[0.5,1,0],[0.145,0.855,0],[0,0.5,0]];shape=mxgraph.bpmn.event;html=1;verticalLabelPosition=bottom;labelBackgroundColor=#ffffff;verticalAlign=top;align=center;perimeter=ellipsePerimeter;outlineConnect=0;aspect=fixed;outline=end;symbol=terminate2;fontSize=25;fillColor=#f8cecc;strokeColor=#b85450;" vertex="1" parent="6HgxVARiSFyIYE2zhFv--419">
          <mxGeometry x="1408.5" y="229" width="50" height="50" as="geometry" />
        </mxCell>
        <mxCell id="6HgxVARiSFyIYE2zhFv--451" style="edgeStyle=orthogonalEdgeStyle;rounded=0;orthogonalLoop=1;jettySize=auto;html=1;fontSize=25;entryX=0.5;entryY=1;entryDx=0;entryDy=0;entryPerimeter=0;" edge="1" parent="6HgxVARiSFyIYE2zhFv--419" source="6HgxVARiSFyIYE2zhFv--446" target="6HgxVARiSFyIYE2zhFv--450">
          <mxGeometry relative="1" as="geometry">
            <mxPoint x="1507.5" y="284" as="targetPoint" />
            <Array as="points">
              <mxPoint x="1434" y="405" />
            </Array>
          </mxGeometry>
        </mxCell>
        <mxCell id="hJShWmBs0dNSn38TEw8a-44" style="edgeStyle=orthogonalEdgeStyle;rounded=0;orthogonalLoop=1;jettySize=auto;html=1;exitX=0.5;exitY=0;exitDx=0;exitDy=0;exitPerimeter=0;entryX=0;entryY=0.5;entryDx=0;entryDy=0;entryPerimeter=0;" edge="1" parent="6HgxVARiSFyIYE2zhFv--419" source="hJShWmBs0dNSn38TEw8a-39" target="hJShWmBs0dNSn38TEw8a-42">
          <mxGeometry relative="1" as="geometry" />
        </mxCell>
        <mxCell id="hJShWmBs0dNSn38TEw8a-45" style="edgeStyle=orthogonalEdgeStyle;rounded=0;orthogonalLoop=1;jettySize=auto;html=1;exitX=0.5;exitY=1;exitDx=0;exitDy=0;exitPerimeter=0;entryX=0;entryY=0.5;entryDx=0;entryDy=0;entryPerimeter=0;" edge="1" parent="6HgxVARiSFyIYE2zhFv--419" source="hJShWmBs0dNSn38TEw8a-39" target="hJShWmBs0dNSn38TEw8a-41">
          <mxGeometry relative="1" as="geometry" />
        </mxCell>
        <mxCell id="hJShWmBs0dNSn38TEw8a-39" value="REALIZAR" style="points=[[0.25,0.25,0],[0.5,0,0],[0.75,0.25,0],[1,0.5,0],[0.75,0.75,0],[0.5,1,0],[0.25,0.75,0],[0,0.5,0]];shape=mxgraph.bpmn.gateway2;html=1;verticalLabelPosition=bottom;labelBackgroundColor=#ffffff;verticalAlign=top;align=center;perimeter=rhombusPerimeter;outlineConnect=0;outline=none;symbol=none;fontSize=25;fillColor=#fff2cc;strokeColor=#d6b656;" vertex="1" parent="6HgxVARiSFyIYE2zhFv--419">
          <mxGeometry x="776.5" y="360" width="80" height="90" as="geometry" />
        </mxCell>
        <mxCell id="hJShWmBs0dNSn38TEw8a-46" style="edgeStyle=orthogonalEdgeStyle;rounded=0;orthogonalLoop=1;jettySize=auto;html=1;exitX=1;exitY=0.5;exitDx=0;exitDy=0;exitPerimeter=0;entryX=0.5;entryY=0;entryDx=0;entryDy=0;entryPerimeter=0;" edge="1" parent="6HgxVARiSFyIYE2zhFv--419" source="hJShWmBs0dNSn38TEw8a-42" target="6HgxVARiSFyIYE2zhFv--449">
          <mxGeometry relative="1" as="geometry" />
        </mxCell>
        <mxCell id="hJShWmBs0dNSn38TEw8a-42" value="Modificar evento" style="points=[[0.25,0,0],[0.5,0,0],[0.75,0,0],[1,0.25,0],[1,0.5,0],[1,0.75,0],[0.75,1,0],[0.5,1,0],[0.25,1,0],[0,0.75,0],[0,0.5,0],[0,0.25,0]];shape=mxgraph.bpmn.task;whiteSpace=wrap;rectStyle=rounded;size=10;html=1;taskMarker=abstract;fontSize=19;fillColor=#dae8fc;strokeColor=#6c8ebf;" vertex="1" parent="6HgxVARiSFyIYE2zhFv--419">
          <mxGeometry x="908.5" y="279" width="101.5" height="70" as="geometry" />
        </mxCell>
        <mxCell id="hJShWmBs0dNSn38TEw8a-47" style="edgeStyle=orthogonalEdgeStyle;rounded=0;orthogonalLoop=1;jettySize=auto;html=1;exitX=1;exitY=0.5;exitDx=0;exitDy=0;exitPerimeter=0;entryX=0.5;entryY=1;entryDx=0;entryDy=0;entryPerimeter=0;" edge="1" parent="6HgxVARiSFyIYE2zhFv--419" source="hJShWmBs0dNSn38TEw8a-41" target="6HgxVARiSFyIYE2zhFv--449">
          <mxGeometry relative="1" as="geometry" />
        </mxCell>
        <mxCell id="hJShWmBs0dNSn38TEw8a-41" value="Eliminar evento" style="points=[[0.25,0,0],[0.5,0,0],[0.75,0,0],[1,0.25,0],[1,0.5,0],[1,0.75,0],[0.75,1,0],[0.5,1,0],[0.25,1,0],[0,0.75,0],[0,0.5,0],[0,0.25,0]];shape=mxgraph.bpmn.task;whiteSpace=wrap;rectStyle=rounded;size=10;html=1;taskMarker=abstract;fontSize=19;fillColor=#dae8fc;strokeColor=#6c8ebf;" vertex="1" parent="6HgxVARiSFyIYE2zhFv--419">
          <mxGeometry x="908.5" y="435" width="101.5" height="70" as="geometry" />
        </mxCell>
        <mxCell id="6HgxVARiSFyIYE2zhFv--520" style="edgeStyle=orthogonalEdgeStyle;rounded=0;orthogonalLoop=1;jettySize=auto;html=1;entryX=0.5;entryY=1;entryDx=0;entryDy=0;entryPerimeter=0;fontSize=25;" edge="1" parent="6HgxVARiSFyIYE2zhFv--347" source="6HgxVARiSFyIYE2zhFv--511" target="6HgxVARiSFyIYE2zhFv--354">
          <mxGeometry relative="1" as="geometry">
            <Array as="points">
              <mxPoint x="314" y="550" />
              <mxPoint x="554" y="550" />
            </Array>
          </mxGeometry>
        </mxCell>
        <mxCell id="6HgxVARiSFyIYE2zhFv--521" style="edgeStyle=orthogonalEdgeStyle;rounded=0;orthogonalLoop=1;jettySize=auto;html=1;entryX=0.5;entryY=0;entryDx=0;entryDy=0;entryPerimeter=0;fontSize=25;" edge="1" parent="6HgxVARiSFyIYE2zhFv--347" source="6HgxVARiSFyIYE2zhFv--356" target="6HgxVARiSFyIYE2zhFv--387">
          <mxGeometry relative="1" as="geometry">
            <Array as="points">
              <mxPoint x="794" y="520" />
              <mxPoint x="595" y="520" />
            </Array>
          </mxGeometry>
        </mxCell>
        <mxCell id="6HgxVARiSFyIYE2zhFv--524" style="edgeStyle=orthogonalEdgeStyle;rounded=0;orthogonalLoop=1;jettySize=auto;html=1;entryX=0.5;entryY=0;entryDx=0;entryDy=0;entryPerimeter=0;fontSize=25;" edge="1" parent="6HgxVARiSFyIYE2zhFv--347" source="6HgxVARiSFyIYE2zhFv--487" target="6HgxVARiSFyIYE2zhFv--554">
          <mxGeometry relative="1" as="geometry">
            <Array as="points">
              <mxPoint x="1350" y="80" />
              <mxPoint x="2030" y="80" />
              <mxPoint x="2030" y="1340" />
              <mxPoint x="441" y="1340" />
            </Array>
          </mxGeometry>
        </mxCell>
        <mxCell id="6HgxVARiSFyIYE2zhFv--558" style="edgeStyle=orthogonalEdgeStyle;rounded=0;orthogonalLoop=1;jettySize=auto;html=1;fontSize=25;startArrow=none;startFill=0;endArrow=classic;endFill=1;" edge="1" parent="6HgxVARiSFyIYE2zhFv--347" source="6HgxVARiSFyIYE2zhFv--362" target="6HgxVARiSFyIYE2zhFv--424">
          <mxGeometry relative="1" as="geometry">
            <Array as="points">
              <mxPoint x="1540" y="650" />
              <mxPoint x="1990" y="650" />
              <mxPoint x="1990" y="2342" />
              <mxPoint x="336" y="2342" />
            </Array>
          </mxGeometry>
        </mxCell>
        <mxCell id="hJShWmBs0dNSn38TEw8a-36" style="edgeStyle=orthogonalEdgeStyle;rounded=0;orthogonalLoop=1;jettySize=auto;html=1;exitX=0.5;exitY=0;exitDx=0;exitDy=0;exitPerimeter=0;entryX=0.5;entryY=1;entryDx=0;entryDy=0;entryPerimeter=0;" edge="1" parent="6HgxVARiSFyIYE2zhFv--347" source="hJShWmBs0dNSn38TEw8a-33" target="hJShWmBs0dNSn38TEw8a-20">
          <mxGeometry relative="1" as="geometry">
            <mxPoint x="1650" y="1442" as="targetPoint" />
            <Array as="points">
              <mxPoint x="1561" y="112" />
              <mxPoint x="1950" y="112" />
              <mxPoint x="1950" y="1772" />
              <mxPoint x="430" y="1772" />
            </Array>
          </mxGeometry>
        </mxCell>
        <mxCell id="6HgxVARiSFyIYE2zhFv--523" style="edgeStyle=orthogonalEdgeStyle;rounded=0;orthogonalLoop=1;jettySize=auto;html=1;fontSize=25;entryX=0.5;entryY=0;entryDx=0;entryDy=0;entryPerimeter=0;dashed=1;startArrow=oval;startFill=0;endArrow=blockThin;endFill=0;exitX=0.5;exitY=1;exitDx=0;exitDy=0;exitPerimeter=0;" edge="1" parent="1" source="6HgxVARiSFyIYE2zhFv--130" target="6HgxVARiSFyIYE2zhFv--496">
          <mxGeometry relative="1" as="geometry">
            <mxPoint x="1370" y="3130" as="targetPoint" />
            <Array as="points">
              <mxPoint x="1375" y="2590" />
              <mxPoint x="2060" y="2590" />
              <mxPoint x="2060" y="3370" />
              <mxPoint x="1456" y="3370" />
            </Array>
          </mxGeometry>
        </mxCell>
        <mxCell id="A3xHUpBDQqubrqk8rHVJ-24" value="&lt;span style=&quot;font-size: 24px;&quot;&gt;&lt;b&gt;HERO KIDS&lt;/b&gt;&lt;/span&gt;" style="swimlane;html=1;startSize=60;fontStyle=0;collapsible=0;horizontal=0;swimlaneLine=1;swimlaneFillColor=#ffffff;strokeWidth=2;whiteSpace=wrap;" vertex="1" parent="1">
          <mxGeometry x="170" y="5680" width="2090" height="1780" as="geometry" />
        </mxCell>
        <mxCell id="A3xHUpBDQqubrqk8rHVJ-99" value="&lt;b style=&quot;&quot;&gt;&lt;font style=&quot;font-size: 25px;&quot;&gt;MÓDULO CALENDARIO&lt;br&gt;&lt;/font&gt;&lt;/b&gt;" style="swimlane;html=1;startSize=59;fontStyle=0;collapsible=0;horizontal=0;swimlaneLine=1;swimlaneFillColor=#ffffff;strokeWidth=2;whiteSpace=wrap;" vertex="1" parent="A3xHUpBDQqubrqk8rHVJ-24">
          <mxGeometry x="61.5" y="1230" width="2028.5" height="550" as="geometry" />
        </mxCell>
        <mxCell id="A3xHUpBDQqubrqk8rHVJ-103" value="" style="edgeStyle=orthogonalEdgeStyle;rounded=0;orthogonalLoop=1;jettySize=auto;html=1;fontSize=25;" edge="1" parent="A3xHUpBDQqubrqk8rHVJ-99" source="A3xHUpBDQqubrqk8rHVJ-104" target="A3xHUpBDQqubrqk8rHVJ-116">
          <mxGeometry relative="1" as="geometry" />
        </mxCell>
        <mxCell id="A3xHUpBDQqubrqk8rHVJ-104" value="Ingresar calendario" style="points=[[0.25,0,0],[0.5,0,0],[0.75,0,0],[1,0.25,0],[1,0.5,0],[1,0.75,0],[0.75,1,0],[0.5,1,0],[0.25,1,0],[0,0.75,0],[0,0.5,0],[0,0.25,0]];shape=mxgraph.bpmn.task;whiteSpace=wrap;rectStyle=rounded;size=10;html=1;taskMarker=abstract;fontSize=19;fillColor=#dae8fc;strokeColor=#6c8ebf;" vertex="1" parent="A3xHUpBDQqubrqk8rHVJ-99">
          <mxGeometry x="200" y="200" width="150" height="110" as="geometry" />
        </mxCell>
        <mxCell id="A3xHUpBDQqubrqk8rHVJ-114" style="edgeStyle=orthogonalEdgeStyle;rounded=0;orthogonalLoop=1;jettySize=auto;html=1;entryX=0;entryY=0.5;entryDx=0;entryDy=0;entryPerimeter=0;fontSize=25;" edge="1" parent="A3xHUpBDQqubrqk8rHVJ-99" source="A3xHUpBDQqubrqk8rHVJ-116">
          <mxGeometry relative="1" as="geometry">
            <Array as="points">
              <mxPoint x="470" y="405" />
            </Array>
            <mxPoint x="610" y="405" as="targetPoint" />
          </mxGeometry>
        </mxCell>
        <mxCell id="A3xHUpBDQqubrqk8rHVJ-115" style="edgeStyle=orthogonalEdgeStyle;rounded=0;orthogonalLoop=1;jettySize=auto;html=1;entryX=0;entryY=0.5;entryDx=0;entryDy=0;entryPerimeter=0;fontSize=25;" edge="1" parent="A3xHUpBDQqubrqk8rHVJ-99" source="A3xHUpBDQqubrqk8rHVJ-116" target="A3xHUpBDQqubrqk8rHVJ-117">
          <mxGeometry relative="1" as="geometry">
            <Array as="points">
              <mxPoint x="470" y="154" />
            </Array>
          </mxGeometry>
        </mxCell>
        <mxCell id="A3xHUpBDQqubrqk8rHVJ-116" value="Elegir una &lt;br&gt;opción" style="points=[[0.25,0.25,0],[0.5,0,0],[0.75,0.25,0],[1,0.5,0],[0.75,0.75,0],[0.5,1,0],[0.25,0.75,0],[0,0.5,0]];shape=mxgraph.bpmn.gateway2;html=1;verticalLabelPosition=bottom;labelBackgroundColor=#ffffff;verticalAlign=top;align=center;perimeter=rhombusPerimeter;outlineConnect=0;outline=none;symbol=none;fontSize=25;fillColor=#fff2cc;strokeColor=#d6b656;" vertex="1" parent="A3xHUpBDQqubrqk8rHVJ-99">
          <mxGeometry x="430" y="209" width="80" height="90" as="geometry" />
        </mxCell>
        <mxCell id="A3xHUpBDQqubrqk8rHVJ-117" value="Mirar las actividades" style="points=[[0.25,0,0],[0.5,0,0],[0.75,0,0],[1,0.25,0],[1,0.5,0],[1,0.75,0],[0.75,1,0],[0.5,1,0],[0.25,1,0],[0,0.75,0],[0,0.5,0],[0,0.25,0]];shape=mxgraph.bpmn.task;whiteSpace=wrap;rectStyle=rounded;size=10;html=1;taskMarker=abstract;fontSize=19;fillColor=#dae8fc;strokeColor=#6c8ebf;" vertex="1" parent="A3xHUpBDQqubrqk8rHVJ-99">
          <mxGeometry x="600" y="99" width="150" height="110" as="geometry" />
        </mxCell>
        <mxCell id="A3xHUpBDQqubrqk8rHVJ-120" style="edgeStyle=orthogonalEdgeStyle;rounded=0;orthogonalLoop=1;jettySize=auto;html=1;entryX=0.5;entryY=0;entryDx=0;entryDy=0;entryPerimeter=0;fontSize=25;" edge="1" parent="A3xHUpBDQqubrqk8rHVJ-99" target="A3xHUpBDQqubrqk8rHVJ-128">
          <mxGeometry relative="1" as="geometry">
            <mxPoint x="748.5" y="154" as="sourcePoint" />
          </mxGeometry>
        </mxCell>
        <mxCell id="A3xHUpBDQqubrqk8rHVJ-123" value="Notificar al&lt;br&gt;acudiente" style="points=[[0.145,0.145,0],[0.5,0,0],[0.855,0.145,0],[1,0.5,0],[0.855,0.855,0],[0.5,1,0],[0.145,0.855,0],[0,0.5,0]];shape=mxgraph.bpmn.event;html=1;verticalLabelPosition=bottom;labelBackgroundColor=#ffffff;verticalAlign=top;align=center;perimeter=ellipsePerimeter;outlineConnect=0;aspect=fixed;outline=end;symbol=message;fontSize=25;fillColor=#d5e8d4;strokeColor=#82b366;" vertex="1" parent="A3xHUpBDQqubrqk8rHVJ-99">
          <mxGeometry x="1307.5" y="380" width="50" height="50" as="geometry" />
        </mxCell>
        <mxCell id="A3xHUpBDQqubrqk8rHVJ-126" style="edgeStyle=orthogonalEdgeStyle;rounded=0;orthogonalLoop=1;jettySize=auto;html=1;entryX=0;entryY=0.5;entryDx=0;entryDy=0;entryPerimeter=0;fontSize=25;" edge="1" parent="A3xHUpBDQqubrqk8rHVJ-99" target="A3xHUpBDQqubrqk8rHVJ-123">
          <mxGeometry relative="1" as="geometry">
            <mxPoint x="1227.5" y="405" as="sourcePoint" />
          </mxGeometry>
        </mxCell>
        <mxCell id="A3xHUpBDQqubrqk8rHVJ-128" value="" style="points=[[0.145,0.145,0],[0.5,0,0],[0.855,0.145,0],[1,0.5,0],[0.855,0.855,0],[0.5,1,0],[0.145,0.855,0],[0,0.5,0]];shape=mxgraph.bpmn.event;html=1;verticalLabelPosition=bottom;labelBackgroundColor=#ffffff;verticalAlign=top;align=center;perimeter=ellipsePerimeter;outlineConnect=0;aspect=fixed;outline=end;symbol=terminate2;fontSize=25;fillColor=#f8cecc;strokeColor=#b85450;" vertex="1" parent="A3xHUpBDQqubrqk8rHVJ-99">
          <mxGeometry x="1408.5" y="229" width="50" height="50" as="geometry" />
        </mxCell>
        <mxCell id="A3xHUpBDQqubrqk8rHVJ-129" style="edgeStyle=orthogonalEdgeStyle;rounded=0;orthogonalLoop=1;jettySize=auto;html=1;fontSize=25;entryX=0.5;entryY=1;entryDx=0;entryDy=0;entryPerimeter=0;" edge="1" parent="A3xHUpBDQqubrqk8rHVJ-99" source="A3xHUpBDQqubrqk8rHVJ-123" target="A3xHUpBDQqubrqk8rHVJ-128">
          <mxGeometry relative="1" as="geometry">
            <mxPoint x="1507.5" y="284" as="targetPoint" />
            <Array as="points">
              <mxPoint x="1434" y="405" />
            </Array>
          </mxGeometry>
        </mxCell>
        <mxCell id="hJShWmBs0dNSn38TEw8a-49" value="Crear &lt;br&gt;evento" style="points=[[0.25,0,0],[0.5,0,0],[0.75,0,0],[1,0.25,0],[1,0.5,0],[1,0.75,0],[0.75,1,0],[0.5,1,0],[0.25,1,0],[0,0.75,0],[0,0.5,0],[0,0.25,0]];shape=mxgraph.bpmn.task;whiteSpace=wrap;rectStyle=rounded;size=10;html=1;taskMarker=abstract;fontSize=19;fillColor=#dae8fc;strokeColor=#6c8ebf;" vertex="1" parent="A3xHUpBDQqubrqk8rHVJ-99">
          <mxGeometry x="611.5" y="370" width="101.5" height="70" as="geometry" />
        </mxCell>
        <mxCell id="hJShWmBs0dNSn38TEw8a-50" value="Asignar al calendario eventos" style="points=[[0.25,0,0],[0.5,0,0],[0.75,0,0],[1,0.25,0],[1,0.5,0],[1,0.75,0],[0.75,1,0],[0.5,1,0],[0.25,1,0],[0,0.75,0],[0,0.5,0],[0,0.25,0]];shape=mxgraph.bpmn.task;whiteSpace=wrap;rectStyle=rounded;size=10;html=1;taskMarker=abstract;fontSize=19;fillColor=#dae8fc;strokeColor=#6c8ebf;" vertex="1" parent="A3xHUpBDQqubrqk8rHVJ-99">
          <mxGeometry x="1093" y="365" width="178.5" height="80" as="geometry" />
        </mxCell>
        <mxCell id="hJShWmBs0dNSn38TEw8a-53" value="REALIZAR" style="points=[[0.25,0.25,0],[0.5,0,0],[0.75,0.25,0],[1,0.5,0],[0.75,0.75,0],[0.5,1,0],[0.25,0.75,0],[0,0.5,0]];shape=mxgraph.bpmn.gateway2;html=1;verticalLabelPosition=bottom;labelBackgroundColor=#ffffff;verticalAlign=top;align=center;perimeter=rhombusPerimeter;outlineConnect=0;outline=none;symbol=none;fontSize=25;fillColor=#fff2cc;strokeColor=#d6b656;" vertex="1" parent="A3xHUpBDQqubrqk8rHVJ-99">
          <mxGeometry x="779.5" y="360" width="80" height="90" as="geometry" />
        </mxCell>
        <mxCell id="hJShWmBs0dNSn38TEw8a-48" style="edgeStyle=orthogonalEdgeStyle;rounded=0;orthogonalLoop=1;jettySize=auto;html=1;exitX=1;exitY=0.5;exitDx=0;exitDy=0;exitPerimeter=0;" edge="1" parent="A3xHUpBDQqubrqk8rHVJ-99" source="hJShWmBs0dNSn38TEw8a-49" target="hJShWmBs0dNSn38TEw8a-53">
          <mxGeometry relative="1" as="geometry" />
        </mxCell>
        <mxCell id="hJShWmBs0dNSn38TEw8a-54" style="edgeStyle=orthogonalEdgeStyle;rounded=0;orthogonalLoop=1;jettySize=auto;html=1;exitX=1;exitY=0.5;exitDx=0;exitDy=0;exitPerimeter=0;entryX=0.5;entryY=0;entryDx=0;entryDy=0;entryPerimeter=0;" edge="1" parent="A3xHUpBDQqubrqk8rHVJ-99" source="hJShWmBs0dNSn38TEw8a-55" target="hJShWmBs0dNSn38TEw8a-50">
          <mxGeometry relative="1" as="geometry" />
        </mxCell>
        <mxCell id="hJShWmBs0dNSn38TEw8a-55" value="Modificar evento" style="points=[[0.25,0,0],[0.5,0,0],[0.75,0,0],[1,0.25,0],[1,0.5,0],[1,0.75,0],[0.75,1,0],[0.5,1,0],[0.25,1,0],[0,0.75,0],[0,0.5,0],[0,0.25,0]];shape=mxgraph.bpmn.task;whiteSpace=wrap;rectStyle=rounded;size=10;html=1;taskMarker=abstract;fontSize=19;fillColor=#dae8fc;strokeColor=#6c8ebf;" vertex="1" parent="A3xHUpBDQqubrqk8rHVJ-99">
          <mxGeometry x="911.5" y="279" width="101.5" height="70" as="geometry" />
        </mxCell>
        <mxCell id="hJShWmBs0dNSn38TEw8a-51" style="edgeStyle=orthogonalEdgeStyle;rounded=0;orthogonalLoop=1;jettySize=auto;html=1;exitX=0.5;exitY=0;exitDx=0;exitDy=0;exitPerimeter=0;entryX=0;entryY=0.5;entryDx=0;entryDy=0;entryPerimeter=0;" edge="1" parent="A3xHUpBDQqubrqk8rHVJ-99" source="hJShWmBs0dNSn38TEw8a-53" target="hJShWmBs0dNSn38TEw8a-55">
          <mxGeometry relative="1" as="geometry" />
        </mxCell>
        <mxCell id="hJShWmBs0dNSn38TEw8a-56" style="edgeStyle=orthogonalEdgeStyle;rounded=0;orthogonalLoop=1;jettySize=auto;html=1;exitX=1;exitY=0.5;exitDx=0;exitDy=0;exitPerimeter=0;entryX=0.5;entryY=1;entryDx=0;entryDy=0;entryPerimeter=0;" edge="1" parent="A3xHUpBDQqubrqk8rHVJ-99" source="hJShWmBs0dNSn38TEw8a-57" target="hJShWmBs0dNSn38TEw8a-50">
          <mxGeometry relative="1" as="geometry" />
        </mxCell>
        <mxCell id="hJShWmBs0dNSn38TEw8a-57" value="Eliminar evento" style="points=[[0.25,0,0],[0.5,0,0],[0.75,0,0],[1,0.25,0],[1,0.5,0],[1,0.75,0],[0.75,1,0],[0.5,1,0],[0.25,1,0],[0,0.75,0],[0,0.5,0],[0,0.25,0]];shape=mxgraph.bpmn.task;whiteSpace=wrap;rectStyle=rounded;size=10;html=1;taskMarker=abstract;fontSize=19;fillColor=#dae8fc;strokeColor=#6c8ebf;" vertex="1" parent="A3xHUpBDQqubrqk8rHVJ-99">
          <mxGeometry x="911.5" y="435" width="101.5" height="70" as="geometry" />
        </mxCell>
        <mxCell id="hJShWmBs0dNSn38TEw8a-52" style="edgeStyle=orthogonalEdgeStyle;rounded=0;orthogonalLoop=1;jettySize=auto;html=1;exitX=0.5;exitY=1;exitDx=0;exitDy=0;exitPerimeter=0;entryX=0;entryY=0.5;entryDx=0;entryDy=0;entryPerimeter=0;" edge="1" parent="A3xHUpBDQqubrqk8rHVJ-99" source="hJShWmBs0dNSn38TEw8a-53" target="hJShWmBs0dNSn38TEw8a-57">
          <mxGeometry relative="1" as="geometry" />
        </mxCell>
        <mxCell id="hJShWmBs0dNSn38TEw8a-58" value="&lt;b&gt;&lt;font style=&quot;font-size: 22px;&quot;&gt;MÓDULO TRAMITES&lt;/font&gt;&lt;/b&gt;" style="swimlane;html=1;startSize=60;fontStyle=0;collapsible=0;horizontal=0;swimlaneLine=1;swimlaneFillColor=#ffffff;strokeWidth=2;whiteSpace=wrap;fillColor=#FFFFFF;" vertex="1" parent="A3xHUpBDQqubrqk8rHVJ-24">
          <mxGeometry x="61.5" y="880" width="2028.5" height="350" as="geometry" />
        </mxCell>
        <mxCell id="hJShWmBs0dNSn38TEw8a-64" value="" style="points=[[0.145,0.145,0],[0.5,0,0],[0.855,0.145,0],[1,0.5,0],[0.855,0.855,0],[0.5,1,0],[0.145,0.855,0],[0,0.5,0]];shape=mxgraph.bpmn.event;html=1;verticalLabelPosition=bottom;labelBackgroundColor=#ffffff;verticalAlign=top;align=center;perimeter=ellipsePerimeter;outlineConnect=0;aspect=fixed;outline=end;symbol=terminate2;fontSize=25;fillColor=#f8cecc;strokeColor=#b85450;rotation=0;direction=south;" vertex="1" parent="hJShWmBs0dNSn38TEw8a-58">
          <mxGeometry x="908.5" y="145" width="50" height="50" as="geometry" />
        </mxCell>
        <mxCell id="hJShWmBs0dNSn38TEw8a-66" value="Crear &lt;br&gt;citación" style="points=[[0.25,0,0],[0.5,0,0],[0.75,0,0],[1,0.25,0],[1,0.5,0],[1,0.75,0],[0.75,1,0],[0.5,1,0],[0.25,1,0],[0,0.75,0],[0,0.5,0],[0,0.25,0]];shape=mxgraph.bpmn.task;whiteSpace=wrap;rectStyle=rounded;size=10;html=1;taskMarker=abstract;fontSize=19;fillColor=#dae8fc;strokeColor=#6c8ebf;" vertex="1" parent="hJShWmBs0dNSn38TEw8a-58">
          <mxGeometry x="171.5" y="145" width="103" height="50" as="geometry" />
        </mxCell>
        <mxCell id="hJShWmBs0dNSn38TEw8a-70" value="Seleccionar" style="points=[[0.25,0.25,0],[0.5,0,0],[0.75,0.25,0],[1,0.5,0],[0.75,0.75,0],[0.5,1,0],[0.25,0.75,0],[0,0.5,0]];shape=mxgraph.bpmn.gateway2;html=1;verticalLabelPosition=bottom;labelBackgroundColor=#ffffff;verticalAlign=top;align=center;perimeter=rhombusPerimeter;outlineConnect=0;outline=none;symbol=none;fontSize=25;fillColor=#fff2cc;strokeColor=#d6b656;" vertex="1" parent="hJShWmBs0dNSn38TEw8a-58">
          <mxGeometry x="353" y="125" width="80" height="90" as="geometry" />
        </mxCell>
        <mxCell id="hJShWmBs0dNSn38TEw8a-65" value="" style="edgeStyle=orthogonalEdgeStyle;rounded=0;orthogonalLoop=1;jettySize=auto;html=1;" edge="1" parent="hJShWmBs0dNSn38TEw8a-58" source="hJShWmBs0dNSn38TEw8a-66" target="hJShWmBs0dNSn38TEw8a-70">
          <mxGeometry relative="1" as="geometry" />
        </mxCell>
        <mxCell id="hJShWmBs0dNSn38TEw8a-71" style="edgeStyle=orthogonalEdgeStyle;rounded=0;orthogonalLoop=1;jettySize=auto;html=1;exitX=1;exitY=0.5;exitDx=0;exitDy=0;exitPerimeter=0;entryX=1;entryY=0.5;entryDx=0;entryDy=0;entryPerimeter=0;" edge="1" parent="hJShWmBs0dNSn38TEw8a-58" source="hJShWmBs0dNSn38TEw8a-72" target="hJShWmBs0dNSn38TEw8a-64">
          <mxGeometry relative="1" as="geometry" />
        </mxCell>
        <mxCell id="hJShWmBs0dNSn38TEw8a-72" value="Eliminar&lt;br&gt;citación" style="points=[[0.25,0,0],[0.5,0,0],[0.75,0,0],[1,0.25,0],[1,0.5,0],[1,0.75,0],[0.75,1,0],[0.5,1,0],[0.25,1,0],[0,0.75,0],[0,0.5,0],[0,0.25,0]];shape=mxgraph.bpmn.task;whiteSpace=wrap;rectStyle=rounded;size=10;html=1;taskMarker=abstract;fontSize=19;fillColor=#dae8fc;strokeColor=#6c8ebf;" vertex="1" parent="hJShWmBs0dNSn38TEw8a-58">
          <mxGeometry x="523" y="245" width="103" height="50" as="geometry" />
        </mxCell>
        <mxCell id="hJShWmBs0dNSn38TEw8a-69" style="edgeStyle=orthogonalEdgeStyle;rounded=0;orthogonalLoop=1;jettySize=auto;html=1;exitX=0.5;exitY=1;exitDx=0;exitDy=0;exitPerimeter=0;entryX=0;entryY=0.5;entryDx=0;entryDy=0;entryPerimeter=0;" edge="1" parent="hJShWmBs0dNSn38TEw8a-58" source="hJShWmBs0dNSn38TEw8a-70" target="hJShWmBs0dNSn38TEw8a-72">
          <mxGeometry relative="1" as="geometry" />
        </mxCell>
        <mxCell id="hJShWmBs0dNSn38TEw8a-73" style="edgeStyle=orthogonalEdgeStyle;rounded=0;orthogonalLoop=1;jettySize=auto;html=1;exitX=1;exitY=0.5;exitDx=0;exitDy=0;exitPerimeter=0;entryX=0.5;entryY=1;entryDx=0;entryDy=0;entryPerimeter=0;" edge="1" parent="hJShWmBs0dNSn38TEw8a-58" source="hJShWmBs0dNSn38TEw8a-74" target="hJShWmBs0dNSn38TEw8a-64">
          <mxGeometry relative="1" as="geometry" />
        </mxCell>
        <mxCell id="hJShWmBs0dNSn38TEw8a-74" value="Modifica citación" style="points=[[0.25,0,0],[0.5,0,0],[0.75,0,0],[1,0.25,0],[1,0.5,0],[1,0.75,0],[0.75,1,0],[0.5,1,0],[0.25,1,0],[0,0.75,0],[0,0.5,0],[0,0.25,0]];shape=mxgraph.bpmn.task;whiteSpace=wrap;rectStyle=rounded;size=10;html=1;taskMarker=abstract;fontSize=19;fillColor=#dae8fc;strokeColor=#6c8ebf;" vertex="1" parent="hJShWmBs0dNSn38TEw8a-58">
          <mxGeometry x="513" y="145" width="103" height="50" as="geometry" />
        </mxCell>
        <mxCell id="hJShWmBs0dNSn38TEw8a-68" style="edgeStyle=orthogonalEdgeStyle;rounded=0;orthogonalLoop=1;jettySize=auto;html=1;exitX=1;exitY=0.5;exitDx=0;exitDy=0;exitPerimeter=0;" edge="1" parent="hJShWmBs0dNSn38TEw8a-58" source="hJShWmBs0dNSn38TEw8a-70" target="hJShWmBs0dNSn38TEw8a-74">
          <mxGeometry relative="1" as="geometry" />
        </mxCell>
        <mxCell id="hJShWmBs0dNSn38TEw8a-75" style="edgeStyle=orthogonalEdgeStyle;rounded=0;orthogonalLoop=1;jettySize=auto;html=1;exitX=1;exitY=0.5;exitDx=0;exitDy=0;exitPerimeter=0;entryX=0;entryY=0.5;entryDx=0;entryDy=0;entryPerimeter=0;" edge="1" parent="hJShWmBs0dNSn38TEw8a-58" source="hJShWmBs0dNSn38TEw8a-76" target="hJShWmBs0dNSn38TEw8a-64">
          <mxGeometry relative="1" as="geometry">
            <Array as="points">
              <mxPoint x="934" y="98" />
            </Array>
          </mxGeometry>
        </mxCell>
        <mxCell id="hJShWmBs0dNSn38TEw8a-76" value="Observar citacion" style="points=[[0.25,0,0],[0.5,0,0],[0.75,0,0],[1,0.25,0],[1,0.5,0],[1,0.75,0],[0.75,1,0],[0.5,1,0],[0.25,1,0],[0,0.75,0],[0,0.5,0],[0,0.25,0]];shape=mxgraph.bpmn.task;whiteSpace=wrap;rectStyle=rounded;size=10;html=1;taskMarker=abstract;fontSize=19;fillColor=#dae8fc;strokeColor=#6c8ebf;" vertex="1" parent="hJShWmBs0dNSn38TEw8a-58">
          <mxGeometry x="521" y="73" width="103" height="50" as="geometry" />
        </mxCell>
        <mxCell id="hJShWmBs0dNSn38TEw8a-67" style="edgeStyle=orthogonalEdgeStyle;rounded=0;orthogonalLoop=1;jettySize=auto;html=1;exitX=0.5;exitY=0;exitDx=0;exitDy=0;exitPerimeter=0;entryX=0;entryY=0.5;entryDx=0;entryDy=0;entryPerimeter=0;" edge="1" parent="hJShWmBs0dNSn38TEw8a-58" source="hJShWmBs0dNSn38TEw8a-70" target="hJShWmBs0dNSn38TEw8a-76">
          <mxGeometry relative="1" as="geometry" />
        </mxCell>
        <mxCell id="A3xHUpBDQqubrqk8rHVJ-25" value="&lt;span style=&quot;font-size: 22px;&quot;&gt;&lt;b&gt;DOCENTE&lt;br&gt;&lt;/b&gt;&lt;/span&gt;" style="swimlane;html=1;startSize=60;fontStyle=0;collapsible=0;horizontal=0;swimlaneLine=1;swimlaneFillColor=#ffffff;strokeWidth=2;whiteSpace=wrap;fillColor=#FFFFFF;" vertex="1" parent="A3xHUpBDQqubrqk8rHVJ-24">
          <mxGeometry x="61.5" width="2028.5" height="530" as="geometry" />
        </mxCell>
        <mxCell id="A3xHUpBDQqubrqk8rHVJ-26" style="edgeStyle=orthogonalEdgeStyle;rounded=0;orthogonalLoop=1;jettySize=auto;html=1;entryX=0;entryY=0.5;entryDx=0;entryDy=0;entryPerimeter=0;fontSize=19;" edge="1" parent="A3xHUpBDQqubrqk8rHVJ-25" source="A3xHUpBDQqubrqk8rHVJ-27" target="A3xHUpBDQqubrqk8rHVJ-29">
          <mxGeometry relative="1" as="geometry" />
        </mxCell>
        <mxCell id="A3xHUpBDQqubrqk8rHVJ-27" value="" style="points=[[0.145,0.145,0],[0.5,0,0],[0.855,0.145,0],[1,0.5,0],[0.855,0.855,0],[0.5,1,0],[0.145,0.855,0],[0,0.5,0]];shape=mxgraph.bpmn.event;html=1;verticalLabelPosition=bottom;labelBackgroundColor=#ffffff;verticalAlign=top;align=center;perimeter=ellipsePerimeter;outlineConnect=0;aspect=fixed;outline=end;symbol=terminate2;fontSize=19;fillColor=#d5e8d4;strokeColor=#82b366;" vertex="1" parent="A3xHUpBDQqubrqk8rHVJ-25">
          <mxGeometry x="87" y="280" width="50" height="50" as="geometry" />
        </mxCell>
        <mxCell id="A3xHUpBDQqubrqk8rHVJ-28" style="edgeStyle=orthogonalEdgeStyle;rounded=0;orthogonalLoop=1;jettySize=auto;html=1;fontSize=25;" edge="1" parent="A3xHUpBDQqubrqk8rHVJ-25" source="A3xHUpBDQqubrqk8rHVJ-29" target="A3xHUpBDQqubrqk8rHVJ-31">
          <mxGeometry relative="1" as="geometry" />
        </mxCell>
        <mxCell id="A3xHUpBDQqubrqk8rHVJ-29" value="Ingresar con usuario y contraseña" style="points=[[0.25,0,0],[0.5,0,0],[0.75,0,0],[1,0.25,0],[1,0.5,0],[1,0.75,0],[0.75,1,0],[0.5,1,0],[0.25,1,0],[0,0.75,0],[0,0.5,0],[0,0.25,0]];shape=mxgraph.bpmn.task;whiteSpace=wrap;rectStyle=rounded;size=10;html=1;taskMarker=abstract;fontSize=19;fillColor=#dae8fc;strokeColor=#6c8ebf;" vertex="1" parent="A3xHUpBDQqubrqk8rHVJ-25">
          <mxGeometry x="217" y="265" width="120" height="80" as="geometry" />
        </mxCell>
        <mxCell id="A3xHUpBDQqubrqk8rHVJ-30" style="edgeStyle=orthogonalEdgeStyle;rounded=0;orthogonalLoop=1;jettySize=auto;html=1;entryX=0;entryY=0.5;entryDx=0;entryDy=0;entryPerimeter=0;fontSize=25;" edge="1" parent="A3xHUpBDQqubrqk8rHVJ-25" source="A3xHUpBDQqubrqk8rHVJ-31" target="A3xHUpBDQqubrqk8rHVJ-33">
          <mxGeometry relative="1" as="geometry" />
        </mxCell>
        <mxCell id="A3xHUpBDQqubrqk8rHVJ-31" value="Observar los estudiantes que están activos" style="points=[[0.25,0,0],[0.5,0,0],[0.75,0,0],[1,0.25,0],[1,0.5,0],[1,0.75,0],[0.75,1,0],[0.5,1,0],[0.25,1,0],[0,0.75,0],[0,0.5,0],[0,0.25,0]];shape=mxgraph.bpmn.task;whiteSpace=wrap;rectStyle=rounded;size=10;html=1;taskMarker=abstract;fontSize=19;fillColor=#dae8fc;strokeColor=#6c8ebf;" vertex="1" parent="A3xHUpBDQqubrqk8rHVJ-25">
          <mxGeometry x="407" y="260" width="170" height="90" as="geometry" />
        </mxCell>
        <mxCell id="A3xHUpBDQqubrqk8rHVJ-32" style="edgeStyle=orthogonalEdgeStyle;rounded=0;orthogonalLoop=1;jettySize=auto;html=1;fontSize=25;" edge="1" parent="A3xHUpBDQqubrqk8rHVJ-25" source="A3xHUpBDQqubrqk8rHVJ-33">
          <mxGeometry relative="1" as="geometry">
            <mxPoint x="899" y="307" as="targetPoint" />
          </mxGeometry>
        </mxCell>
        <mxCell id="A3xHUpBDQqubrqk8rHVJ-33" value="Acceder a la información personal de los estudiantes" style="points=[[0.25,0,0],[0.5,0,0],[0.75,0,0],[1,0.25,0],[1,0.5,0],[1,0.75,0],[0.75,1,0],[0.5,1,0],[0.25,1,0],[0,0.75,0],[0,0.5,0],[0,0.25,0]];shape=mxgraph.bpmn.task;whiteSpace=wrap;rectStyle=rounded;size=10;html=1;taskMarker=abstract;fontSize=19;fillColor=#dae8fc;strokeColor=#6c8ebf;" vertex="1" parent="A3xHUpBDQqubrqk8rHVJ-25">
          <mxGeometry x="647" y="262" width="170" height="90" as="geometry" />
        </mxCell>
        <mxCell id="6HgxVARiSFyIYE2zhFv--575" style="edgeStyle=orthogonalEdgeStyle;rounded=0;orthogonalLoop=1;jettySize=auto;html=1;entryX=0;entryY=0.5;entryDx=0;entryDy=0;entryPerimeter=0;fontSize=25;startArrow=none;startFill=0;endArrow=classic;endFill=1;" edge="1" parent="A3xHUpBDQqubrqk8rHVJ-25" source="6HgxVARiSFyIYE2zhFv--571" target="6HgxVARiSFyIYE2zhFv--572">
          <mxGeometry relative="1" as="geometry">
            <Array as="points">
              <mxPoint x="1202" y="142" />
            </Array>
          </mxGeometry>
        </mxCell>
        <mxCell id="6HgxVARiSFyIYE2zhFv--577" style="edgeStyle=orthogonalEdgeStyle;rounded=0;orthogonalLoop=1;jettySize=auto;html=1;entryX=0;entryY=0.5;entryDx=0;entryDy=0;entryPerimeter=0;fontSize=25;startArrow=none;startFill=0;endArrow=classic;endFill=1;" edge="1" parent="A3xHUpBDQqubrqk8rHVJ-25" source="6HgxVARiSFyIYE2zhFv--571" target="6HgxVARiSFyIYE2zhFv--576">
          <mxGeometry relative="1" as="geometry">
            <Array as="points">
              <mxPoint x="1202" y="432" />
            </Array>
          </mxGeometry>
        </mxCell>
        <mxCell id="6HgxVARiSFyIYE2zhFv--571" value="Seleccionar" style="points=[[0.25,0.25,0],[0.5,0,0],[0.75,0.25,0],[1,0.5,0],[0.75,0.75,0],[0.5,1,0],[0.25,0.75,0],[0,0.5,0]];shape=mxgraph.bpmn.gateway2;html=1;verticalLabelPosition=bottom;labelBackgroundColor=#ffffff;verticalAlign=top;align=center;perimeter=rhombusPerimeter;outlineConnect=0;outline=none;symbol=none;fontSize=25;fillColor=#fff2cc;strokeColor=#d6b656;" vertex="1" parent="A3xHUpBDQqubrqk8rHVJ-25">
          <mxGeometry x="1161.5" y="261" width="80" height="90" as="geometry" />
        </mxCell>
        <mxCell id="6HgxVARiSFyIYE2zhFv--579" style="edgeStyle=orthogonalEdgeStyle;rounded=0;orthogonalLoop=1;jettySize=auto;html=1;entryX=0;entryY=0.5;entryDx=0;entryDy=0;entryPerimeter=0;fontSize=25;startArrow=none;startFill=0;endArrow=classic;endFill=1;" edge="1" parent="A3xHUpBDQqubrqk8rHVJ-25" source="6HgxVARiSFyIYE2zhFv--572" target="6HgxVARiSFyIYE2zhFv--578">
          <mxGeometry relative="1" as="geometry" />
        </mxCell>
        <mxCell id="6HgxVARiSFyIYE2zhFv--572" value="observar las actividades" style="points=[[0.25,0,0],[0.5,0,0],[0.75,0,0],[1,0.25,0],[1,0.5,0],[1,0.75,0],[0.75,1,0],[0.5,1,0],[0.25,1,0],[0,0.75,0],[0,0.5,0],[0,0.25,0]];shape=mxgraph.bpmn.task;whiteSpace=wrap;rectStyle=rounded;size=10;html=1;taskMarker=abstract;fontSize=19;fillColor=#dae8fc;strokeColor=#6c8ebf;" vertex="1" parent="A3xHUpBDQqubrqk8rHVJ-25">
          <mxGeometry x="1273.5" y="98" width="170" height="88" as="geometry" />
        </mxCell>
        <mxCell id="6HgxVARiSFyIYE2zhFv--574" value="" style="edgeStyle=orthogonalEdgeStyle;rounded=0;orthogonalLoop=1;jettySize=auto;html=1;fontSize=25;startArrow=none;startFill=0;endArrow=classic;endFill=1;" edge="1" parent="A3xHUpBDQqubrqk8rHVJ-25" source="6HgxVARiSFyIYE2zhFv--573" target="6HgxVARiSFyIYE2zhFv--571">
          <mxGeometry relative="1" as="geometry" />
        </mxCell>
        <mxCell id="6HgxVARiSFyIYE2zhFv--573" value="Ingresar a calendario" style="points=[[0.25,0,0],[0.5,0,0],[0.75,0,0],[1,0.25,0],[1,0.5,0],[1,0.75,0],[0.75,1,0],[0.5,1,0],[0.25,1,0],[0,0.75,0],[0,0.5,0],[0,0.25,0]];shape=mxgraph.bpmn.task;whiteSpace=wrap;rectStyle=rounded;size=10;html=1;taskMarker=abstract;fontSize=19;fillColor=#dae8fc;strokeColor=#6c8ebf;" vertex="1" parent="A3xHUpBDQqubrqk8rHVJ-25">
          <mxGeometry x="903.5" y="263" width="170" height="88" as="geometry" />
        </mxCell>
        <mxCell id="6HgxVARiSFyIYE2zhFv--580" style="edgeStyle=orthogonalEdgeStyle;rounded=0;orthogonalLoop=1;jettySize=auto;html=1;entryX=1;entryY=0.5;entryDx=0;entryDy=0;entryPerimeter=0;fontSize=25;startArrow=none;startFill=0;endArrow=classic;endFill=1;" edge="1" parent="A3xHUpBDQqubrqk8rHVJ-25" source="6HgxVARiSFyIYE2zhFv--576" target="6HgxVARiSFyIYE2zhFv--578">
          <mxGeometry relative="1" as="geometry" />
        </mxCell>
        <mxCell id="6HgxVARiSFyIYE2zhFv--576" value="Realizar citación a acudientes" style="points=[[0.25,0,0],[0.5,0,0],[0.75,0,0],[1,0.25,0],[1,0.5,0],[1,0.75,0],[0.75,1,0],[0.5,1,0],[0.25,1,0],[0,0.75,0],[0,0.5,0],[0,0.25,0]];shape=mxgraph.bpmn.task;whiteSpace=wrap;rectStyle=rounded;size=10;html=1;taskMarker=abstract;fontSize=19;fillColor=#dae8fc;strokeColor=#6c8ebf;" vertex="1" parent="A3xHUpBDQqubrqk8rHVJ-25">
          <mxGeometry x="1273.5" y="388" width="170" height="88" as="geometry" />
        </mxCell>
        <mxCell id="6HgxVARiSFyIYE2zhFv--578" value="" style="points=[[0.145,0.145,0],[0.5,0,0],[0.855,0.145,0],[1,0.5,0],[0.855,0.855,0],[0.5,1,0],[0.145,0.855,0],[0,0.5,0]];shape=mxgraph.bpmn.event;html=1;verticalLabelPosition=bottom;labelBackgroundColor=#ffffff;verticalAlign=top;align=center;perimeter=ellipsePerimeter;outlineConnect=0;aspect=fixed;outline=end;symbol=terminate2;fontSize=25;fillColor=#f8cecc;strokeColor=#b85450;rotation=0;direction=south;" vertex="1" parent="A3xHUpBDQqubrqk8rHVJ-25">
          <mxGeometry x="1563.5" y="263" width="50" height="50" as="geometry" />
        </mxCell>
        <mxCell id="A3xHUpBDQqubrqk8rHVJ-63" value="&lt;b&gt;&lt;font style=&quot;font-size: 22px;&quot;&gt;MÓDULO GESTIÓN USUARIO&lt;/font&gt;&lt;/b&gt;" style="swimlane;html=1;startSize=60;fontStyle=0;collapsible=0;horizontal=0;swimlaneLine=1;swimlaneFillColor=#ffffff;strokeWidth=2;whiteSpace=wrap;fillColor=#FFFFFF;" vertex="1" parent="A3xHUpBDQqubrqk8rHVJ-24">
          <mxGeometry x="61.5" y="530" width="2028.5" height="350" as="geometry" />
        </mxCell>
        <mxCell id="A3xHUpBDQqubrqk8rHVJ-64" style="edgeStyle=orthogonalEdgeStyle;rounded=0;orthogonalLoop=1;jettySize=auto;html=1;entryX=0.5;entryY=1;entryDx=0;entryDy=0;entryPerimeter=0;fontSize=25;" edge="1" parent="A3xHUpBDQqubrqk8rHVJ-63" source="A3xHUpBDQqubrqk8rHVJ-65" target="A3xHUpBDQqubrqk8rHVJ-66">
          <mxGeometry relative="1" as="geometry" />
        </mxCell>
        <mxCell id="A3xHUpBDQqubrqk8rHVJ-65" value="Informar datos personales de los estudiantes" style="points=[[0.25,0,0],[0.5,0,0],[0.75,0,0],[1,0.25,0],[1,0.5,0],[1,0.75,0],[0.75,1,0],[0.5,1,0],[0.25,1,0],[0,0.75,0],[0,0.5,0],[0,0.25,0]];shape=mxgraph.bpmn.task;whiteSpace=wrap;rectStyle=rounded;size=10;html=1;taskMarker=abstract;fontSize=19;fillColor=#dae8fc;strokeColor=#6c8ebf;" vertex="1" parent="A3xHUpBDQqubrqk8rHVJ-63">
          <mxGeometry x="458.5" y="160" width="150" height="110" as="geometry" />
        </mxCell>
        <mxCell id="A3xHUpBDQqubrqk8rHVJ-66" value="" style="points=[[0.145,0.145,0],[0.5,0,0],[0.855,0.145,0],[1,0.5,0],[0.855,0.855,0],[0.5,1,0],[0.145,0.855,0],[0,0.5,0]];shape=mxgraph.bpmn.event;html=1;verticalLabelPosition=bottom;labelBackgroundColor=#ffffff;verticalAlign=top;align=center;perimeter=ellipsePerimeter;outlineConnect=0;aspect=fixed;outline=end;symbol=terminate2;fontSize=25;fillColor=#f8cecc;strokeColor=#b85450;rotation=0;direction=south;" vertex="1" parent="A3xHUpBDQqubrqk8rHVJ-63">
          <mxGeometry x="708.5" y="190" width="50" height="50" as="geometry" />
        </mxCell>
        <mxCell id="A3xHUpBDQqubrqk8rHVJ-67" style="edgeStyle=orthogonalEdgeStyle;rounded=0;orthogonalLoop=1;jettySize=auto;html=1;fontSize=25;" edge="1" parent="A3xHUpBDQqubrqk8rHVJ-63" source="A3xHUpBDQqubrqk8rHVJ-68" target="A3xHUpBDQqubrqk8rHVJ-65">
          <mxGeometry relative="1" as="geometry" />
        </mxCell>
        <mxCell id="A3xHUpBDQqubrqk8rHVJ-68" value="Mostrar los estudiantes activos en el jardín" style="points=[[0.25,0,0],[0.5,0,0],[0.75,0,0],[1,0.25,0],[1,0.5,0],[1,0.75,0],[0.75,1,0],[0.5,1,0],[0.25,1,0],[0,0.75,0],[0,0.5,0],[0,0.25,0]];shape=mxgraph.bpmn.task;whiteSpace=wrap;rectStyle=rounded;size=10;html=1;taskMarker=abstract;fontSize=19;fillColor=#dae8fc;strokeColor=#6c8ebf;" vertex="1" parent="A3xHUpBDQqubrqk8rHVJ-63">
          <mxGeometry x="177.5" y="160" width="150" height="110" as="geometry" />
        </mxCell>
        <mxCell id="6HgxVARiSFyIYE2zhFv--581" style="edgeStyle=orthogonalEdgeStyle;rounded=0;orthogonalLoop=1;jettySize=auto;html=1;fontSize=25;startArrow=none;startFill=0;endArrow=classic;endFill=1;" edge="1" parent="A3xHUpBDQqubrqk8rHVJ-24" source="A3xHUpBDQqubrqk8rHVJ-31" target="A3xHUpBDQqubrqk8rHVJ-68">
          <mxGeometry relative="1" as="geometry">
            <Array as="points">
              <mxPoint x="553" y="460" />
              <mxPoint x="314" y="460" />
            </Array>
          </mxGeometry>
        </mxCell>
        <mxCell id="6HgxVARiSFyIYE2zhFv--585" style="edgeStyle=orthogonalEdgeStyle;rounded=0;orthogonalLoop=1;jettySize=auto;html=1;fontSize=25;startArrow=classic;startFill=1;endArrow=none;endFill=0;" edge="1" parent="A3xHUpBDQqubrqk8rHVJ-24" source="A3xHUpBDQqubrqk8rHVJ-33" target="A3xHUpBDQqubrqk8rHVJ-65">
          <mxGeometry relative="1" as="geometry">
            <Array as="points">
              <mxPoint x="770" y="600" />
              <mxPoint x="595" y="600" />
            </Array>
          </mxGeometry>
        </mxCell>
        <mxCell id="6HgxVARiSFyIYE2zhFv--588" style="edgeStyle=orthogonalEdgeStyle;rounded=0;orthogonalLoop=1;jettySize=auto;html=1;entryX=0.5;entryY=0;entryDx=0;entryDy=0;entryPerimeter=0;fontSize=25;startArrow=none;startFill=0;endArrow=classic;endFill=1;" edge="1" parent="A3xHUpBDQqubrqk8rHVJ-24" source="6HgxVARiSFyIYE2zhFv--573" target="A3xHUpBDQqubrqk8rHVJ-104">
          <mxGeometry relative="1" as="geometry">
            <Array as="points">
              <mxPoint x="1100" y="720" />
              <mxPoint x="1900" y="720" />
              <mxPoint x="1900" y="1290" />
              <mxPoint x="337" y="1290" />
            </Array>
          </mxGeometry>
        </mxCell>
        <mxCell id="hJShWmBs0dNSn38TEw8a-77" style="edgeStyle=orthogonalEdgeStyle;rounded=0;orthogonalLoop=1;jettySize=auto;html=1;exitX=0.5;exitY=1;exitDx=0;exitDy=0;exitPerimeter=0;entryX=0.5;entryY=0;entryDx=0;entryDy=0;entryPerimeter=0;" edge="1" parent="A3xHUpBDQqubrqk8rHVJ-24" source="6HgxVARiSFyIYE2zhFv--576" target="hJShWmBs0dNSn38TEw8a-66">
          <mxGeometry relative="1" as="geometry">
            <Array as="points">
              <mxPoint x="1420" y="930" />
              <mxPoint x="285" y="930" />
            </Array>
          </mxGeometry>
        </mxCell>
        <mxCell id="6HgxVARiSFyIYE2zhFv--587" style="edgeStyle=orthogonalEdgeStyle;rounded=0;orthogonalLoop=1;jettySize=auto;html=1;fontSize=25;startArrow=oval;startFill=0;endArrow=block;endFill=0;dashed=1;entryX=0.5;entryY=1;entryDx=0;entryDy=0;entryPerimeter=0;" edge="1" parent="1" source="A3xHUpBDQqubrqk8rHVJ-123" target="6HgxVARiSFyIYE2zhFv--362">
          <mxGeometry relative="1" as="geometry">
            <mxPoint x="1596" y="3710" as="targetPoint" />
            <Array as="points">
              <mxPoint x="1564" y="7510" />
              <mxPoint x="2370" y="7510" />
              <mxPoint x="2370" y="3990" />
              <mxPoint x="1662" y="3990" />
            </Array>
          </mxGeometry>
        </mxCell>
        <mxCell id="xrwIqNAE4D9LLXo166CW-1" value="&lt;b&gt;&lt;font style=&quot;font-size: 22px;&quot;&gt;ADMINISTRADOR&lt;/font&gt;&lt;/b&gt;" style="swimlane;html=1;startSize=60;fontStyle=0;collapsible=0;horizontal=0;swimlaneLine=1;swimlaneFillColor=#ffffff;strokeWidth=2;whiteSpace=wrap;fillColor=#FFFFFF;movable=0;resizable=0;rotatable=0;deletable=0;editable=0;locked=1;connectable=0;" vertex="1" parent="1">
          <mxGeometry x="140" y="-1080" width="2090" height="220" as="geometry" />
        </mxCell>
        <mxCell id="xrwIqNAE4D9LLXo166CW-2" style="edgeStyle=orthogonalEdgeStyle;rounded=0;orthogonalLoop=1;jettySize=auto;html=1;entryX=0;entryY=0.5;entryDx=0;entryDy=0;entryPerimeter=0;fontSize=19;" edge="1" parent="xrwIqNAE4D9LLXo166CW-1" source="xrwIqNAE4D9LLXo166CW-3" target="xrwIqNAE4D9LLXo166CW-5">
          <mxGeometry relative="1" as="geometry" />
        </mxCell>
        <mxCell id="xrwIqNAE4D9LLXo166CW-3" value="" style="points=[[0.145,0.145,0],[0.5,0,0],[0.855,0.145,0],[1,0.5,0],[0.855,0.855,0],[0.5,1,0],[0.145,0.855,0],[0,0.5,0]];shape=mxgraph.bpmn.event;html=1;verticalLabelPosition=bottom;labelBackgroundColor=#ffffff;verticalAlign=top;align=center;perimeter=ellipsePerimeter;outlineConnect=0;aspect=fixed;outline=end;symbol=terminate2;fontSize=19;fillColor=#d5e8d4;strokeColor=#82b366;" vertex="1" parent="xrwIqNAE4D9LLXo166CW-1">
          <mxGeometry x="70" y="95" width="50" height="50" as="geometry" />
        </mxCell>
        <mxCell id="xrwIqNAE4D9LLXo166CW-4" style="edgeStyle=orthogonalEdgeStyle;rounded=0;orthogonalLoop=1;jettySize=auto;html=1;fontSize=25;" edge="1" parent="xrwIqNAE4D9LLXo166CW-1" source="xrwIqNAE4D9LLXo166CW-5" target="xrwIqNAE4D9LLXo166CW-7">
          <mxGeometry relative="1" as="geometry" />
        </mxCell>
        <mxCell id="xrwIqNAE4D9LLXo166CW-5" value="Ingresar con usuario y contraseña" style="points=[[0.25,0,0],[0.5,0,0],[0.75,0,0],[1,0.25,0],[1,0.5,0],[1,0.75,0],[0.75,1,0],[0.5,1,0],[0.25,1,0],[0,0.75,0],[0,0.5,0],[0,0.25,0]];shape=mxgraph.bpmn.task;whiteSpace=wrap;rectStyle=rounded;size=10;html=1;taskMarker=abstract;fontSize=19;fillColor=#dae8fc;strokeColor=#6c8ebf;" vertex="1" parent="xrwIqNAE4D9LLXo166CW-1">
          <mxGeometry x="200" y="80" width="120" height="80" as="geometry" />
        </mxCell>
        <mxCell id="xrwIqNAE4D9LLXo166CW-6" style="edgeStyle=orthogonalEdgeStyle;rounded=0;orthogonalLoop=1;jettySize=auto;html=1;entryX=0;entryY=0.5;entryDx=0;entryDy=0;entryPerimeter=0;fontSize=25;" edge="1" parent="xrwIqNAE4D9LLXo166CW-1" source="xrwIqNAE4D9LLXo166CW-7" target="xrwIqNAE4D9LLXo166CW-9">
          <mxGeometry relative="1" as="geometry" />
        </mxCell>
        <mxCell id="xrwIqNAE4D9LLXo166CW-7" value="Registrar estudiantes nuevos" style="points=[[0.25,0,0],[0.5,0,0],[0.75,0,0],[1,0.25,0],[1,0.5,0],[1,0.75,0],[0.75,1,0],[0.5,1,0],[0.25,1,0],[0,0.75,0],[0,0.5,0],[0,0.25,0]];shape=mxgraph.bpmn.task;whiteSpace=wrap;rectStyle=rounded;size=10;html=1;taskMarker=abstract;fontSize=19;fillColor=#dae8fc;strokeColor=#6c8ebf;" vertex="1" parent="xrwIqNAE4D9LLXo166CW-1">
          <mxGeometry x="390" y="75" width="170" height="90" as="geometry" />
        </mxCell>
        <mxCell id="xrwIqNAE4D9LLXo166CW-8" style="edgeStyle=orthogonalEdgeStyle;rounded=0;orthogonalLoop=1;jettySize=auto;html=1;fontSize=25;entryX=0;entryY=0.5;entryDx=0;entryDy=0;entryPerimeter=0;" edge="1" parent="xrwIqNAE4D9LLXo166CW-1" source="xrwIqNAE4D9LLXo166CW-9" target="xrwIqNAE4D9LLXo166CW-16">
          <mxGeometry relative="1" as="geometry">
            <mxPoint x="870" y="120" as="targetPoint" />
          </mxGeometry>
        </mxCell>
        <mxCell id="xrwIqNAE4D9LLXo166CW-9" value="Registrar directivas nuevas" style="points=[[0.25,0,0],[0.5,0,0],[0.75,0,0],[1,0.25,0],[1,0.5,0],[1,0.75,0],[0.75,1,0],[0.5,1,0],[0.25,1,0],[0,0.75,0],[0,0.5,0],[0,0.25,0]];shape=mxgraph.bpmn.task;whiteSpace=wrap;rectStyle=rounded;size=10;html=1;taskMarker=abstract;fontSize=19;fillColor=#dae8fc;strokeColor=#6c8ebf;" vertex="1" parent="xrwIqNAE4D9LLXo166CW-1">
          <mxGeometry x="630" y="80" width="160" height="80" as="geometry" />
        </mxCell>
        <mxCell id="xrwIqNAE4D9LLXo166CW-14" value="" style="points=[[0.145,0.145,0],[0.5,0,0],[0.855,0.145,0],[1,0.5,0],[0.855,0.855,0],[0.5,1,0],[0.145,0.855,0],[0,0.5,0]];shape=mxgraph.bpmn.event;html=1;verticalLabelPosition=bottom;labelBackgroundColor=#ffffff;verticalAlign=top;align=center;perimeter=ellipsePerimeter;outlineConnect=0;aspect=fixed;outline=end;symbol=terminate2;fontSize=25;fillColor=#f8cecc;strokeColor=#b85450;" vertex="1" parent="xrwIqNAE4D9LLXo166CW-1">
          <mxGeometry x="1140" y="95" width="50" height="50" as="geometry" />
        </mxCell>
        <mxCell id="xrwIqNAE4D9LLXo166CW-71" value="" style="edgeStyle=orthogonalEdgeStyle;rounded=0;orthogonalLoop=1;jettySize=auto;html=1;" edge="1" parent="xrwIqNAE4D9LLXo166CW-1" source="xrwIqNAE4D9LLXo166CW-16" target="xrwIqNAE4D9LLXo166CW-14">
          <mxGeometry relative="1" as="geometry" />
        </mxCell>
        <mxCell id="xrwIqNAE4D9LLXo166CW-16" value="Registrar acudientes" style="points=[[0.25,0,0],[0.5,0,0],[0.75,0,0],[1,0.25,0],[1,0.5,0],[1,0.75,0],[0.75,1,0],[0.5,1,0],[0.25,1,0],[0,0.75,0],[0,0.5,0],[0,0.25,0]];shape=mxgraph.bpmn.task;whiteSpace=wrap;rectStyle=rounded;size=10;html=1;taskMarker=abstract;fontSize=19;fillColor=#dae8fc;strokeColor=#6c8ebf;" vertex="1" parent="xrwIqNAE4D9LLXo166CW-1">
          <mxGeometry x="894" y="80" width="160" height="80" as="geometry" />
        </mxCell>
        <mxCell id="xrwIqNAE4D9LLXo166CW-17" value="&lt;b&gt;&lt;font style=&quot;font-size: 22px;&quot;&gt;MÓDULO GESTIÓN USUARIOS&lt;/font&gt;&lt;/b&gt;" style="swimlane;html=1;startSize=60;fontStyle=0;collapsible=0;horizontal=0;swimlaneLine=1;swimlaneFillColor=#ffffff;strokeWidth=2;whiteSpace=wrap;fillColor=#FFFFFF;" vertex="1" parent="xrwIqNAE4D9LLXo166CW-1">
          <mxGeometry y="220" width="2090" height="620" as="geometry" />
        </mxCell>
        <mxCell id="xrwIqNAE4D9LLXo166CW-75" style="edgeStyle=orthogonalEdgeStyle;rounded=0;orthogonalLoop=1;jettySize=auto;html=1;exitX=1;exitY=0.5;exitDx=0;exitDy=0;exitPerimeter=0;entryX=0;entryY=0.5;entryDx=0;entryDy=0;entryPerimeter=0;" edge="1" parent="xrwIqNAE4D9LLXo166CW-17" source="xrwIqNAE4D9LLXo166CW-73" target="xrwIqNAE4D9LLXo166CW-74">
          <mxGeometry relative="1" as="geometry" />
        </mxCell>
        <mxCell id="xrwIqNAE4D9LLXo166CW-73" value="Ingresar datos" style="points=[[0.25,0,0],[0.5,0,0],[0.75,0,0],[1,0.25,0],[1,0.5,0],[1,0.75,0],[0.75,1,0],[0.5,1,0],[0.25,1,0],[0,0.75,0],[0,0.5,0],[0,0.25,0]];shape=mxgraph.bpmn.task;whiteSpace=wrap;rectStyle=rounded;size=10;html=1;taskMarker=abstract;fontSize=19;fillColor=#dae8fc;strokeColor=#6c8ebf;" vertex="1" parent="xrwIqNAE4D9LLXo166CW-17">
          <mxGeometry x="127.5" y="320" width="170" height="70" as="geometry" />
        </mxCell>
        <mxCell id="xrwIqNAE4D9LLXo166CW-80" style="edgeStyle=orthogonalEdgeStyle;rounded=0;orthogonalLoop=1;jettySize=auto;html=1;exitX=0.5;exitY=0;exitDx=0;exitDy=0;exitPerimeter=0;entryX=0;entryY=0.5;entryDx=0;entryDy=0;entryPerimeter=0;" edge="1" parent="xrwIqNAE4D9LLXo166CW-17" source="xrwIqNAE4D9LLXo166CW-74" target="xrwIqNAE4D9LLXo166CW-79">
          <mxGeometry relative="1" as="geometry" />
        </mxCell>
        <mxCell id="xrwIqNAE4D9LLXo166CW-81" style="edgeStyle=orthogonalEdgeStyle;rounded=0;orthogonalLoop=1;jettySize=auto;html=1;exitX=1;exitY=0.5;exitDx=0;exitDy=0;exitPerimeter=0;entryX=0;entryY=0.5;entryDx=0;entryDy=0;entryPerimeter=0;" edge="1" parent="xrwIqNAE4D9LLXo166CW-17" source="xrwIqNAE4D9LLXo166CW-74" target="xrwIqNAE4D9LLXo166CW-78">
          <mxGeometry relative="1" as="geometry" />
        </mxCell>
        <mxCell id="xrwIqNAE4D9LLXo166CW-82" style="edgeStyle=orthogonalEdgeStyle;rounded=0;orthogonalLoop=1;jettySize=auto;html=1;exitX=0.5;exitY=1;exitDx=0;exitDy=0;exitPerimeter=0;entryX=0;entryY=0.5;entryDx=0;entryDy=0;entryPerimeter=0;" edge="1" parent="xrwIqNAE4D9LLXo166CW-17" source="xrwIqNAE4D9LLXo166CW-74" target="xrwIqNAE4D9LLXo166CW-77">
          <mxGeometry relative="1" as="geometry" />
        </mxCell>
        <mxCell id="xrwIqNAE4D9LLXo166CW-74" value="registrar" style="points=[[0.25,0.25,0],[0.5,0,0],[0.75,0.25,0],[1,0.5,0],[0.75,0.75,0],[0.5,1,0],[0.25,0.75,0],[0,0.5,0]];shape=mxgraph.bpmn.gateway2;html=1;verticalLabelPosition=bottom;labelBackgroundColor=#ffffff;verticalAlign=top;align=center;perimeter=rhombusPerimeter;outlineConnect=0;outline=none;symbol=none;fontSize=25;fillColor=#fff2cc;strokeColor=#d6b656;" vertex="1" parent="xrwIqNAE4D9LLXo166CW-17">
          <mxGeometry x="390" y="310" width="80" height="90" as="geometry" />
        </mxCell>
        <mxCell id="xrwIqNAE4D9LLXo166CW-88" value="" style="edgeStyle=orthogonalEdgeStyle;rounded=0;orthogonalLoop=1;jettySize=auto;html=1;" edge="1" parent="xrwIqNAE4D9LLXo166CW-17" source="xrwIqNAE4D9LLXo166CW-79" target="xrwIqNAE4D9LLXo166CW-87">
          <mxGeometry relative="1" as="geometry" />
        </mxCell>
        <mxCell id="xrwIqNAE4D9LLXo166CW-79" value="Estudiantes nuevos" style="points=[[0.25,0,0],[0.5,0,0],[0.75,0,0],[1,0.25,0],[1,0.5,0],[1,0.75,0],[0.75,1,0],[0.5,1,0],[0.25,1,0],[0,0.75,0],[0,0.5,0],[0,0.25,0]];shape=mxgraph.bpmn.task;whiteSpace=wrap;rectStyle=rounded;size=10;html=1;taskMarker=abstract;fontSize=19;fillColor=#dae8fc;strokeColor=#6c8ebf;" vertex="1" parent="xrwIqNAE4D9LLXo166CW-17">
          <mxGeometry x="540" y="170" width="170" height="70" as="geometry" />
        </mxCell>
        <mxCell id="xrwIqNAE4D9LLXo166CW-96" value="" style="edgeStyle=orthogonalEdgeStyle;rounded=0;orthogonalLoop=1;jettySize=auto;html=1;" edge="1" parent="xrwIqNAE4D9LLXo166CW-17" source="xrwIqNAE4D9LLXo166CW-78" target="xrwIqNAE4D9LLXo166CW-91">
          <mxGeometry relative="1" as="geometry" />
        </mxCell>
        <mxCell id="xrwIqNAE4D9LLXo166CW-78" value="Directivas nuevas" style="points=[[0.25,0,0],[0.5,0,0],[0.75,0,0],[1,0.25,0],[1,0.5,0],[1,0.75,0],[0.75,1,0],[0.5,1,0],[0.25,1,0],[0,0.75,0],[0,0.5,0],[0,0.25,0]];shape=mxgraph.bpmn.task;whiteSpace=wrap;rectStyle=rounded;size=10;html=1;taskMarker=abstract;fontSize=19;fillColor=#dae8fc;strokeColor=#6c8ebf;" vertex="1" parent="xrwIqNAE4D9LLXo166CW-17">
          <mxGeometry x="550" y="320" width="170" height="70" as="geometry" />
        </mxCell>
        <mxCell id="xrwIqNAE4D9LLXo166CW-97" value="" style="edgeStyle=orthogonalEdgeStyle;rounded=0;orthogonalLoop=1;jettySize=auto;html=1;" edge="1" parent="xrwIqNAE4D9LLXo166CW-17" source="xrwIqNAE4D9LLXo166CW-77" target="xrwIqNAE4D9LLXo166CW-94">
          <mxGeometry relative="1" as="geometry" />
        </mxCell>
        <mxCell id="xrwIqNAE4D9LLXo166CW-77" value="Acudientes nuevos" style="points=[[0.25,0,0],[0.5,0,0],[0.75,0,0],[1,0.25,0],[1,0.5,0],[1,0.75,0],[0.75,1,0],[0.5,1,0],[0.25,1,0],[0,0.75,0],[0,0.5,0],[0,0.25,0]];shape=mxgraph.bpmn.task;whiteSpace=wrap;rectStyle=rounded;size=10;html=1;taskMarker=abstract;fontSize=19;fillColor=#dae8fc;strokeColor=#6c8ebf;" vertex="1" parent="xrwIqNAE4D9LLXo166CW-17">
          <mxGeometry x="540" y="500" width="170" height="70" as="geometry" />
        </mxCell>
        <mxCell id="xrwIqNAE4D9LLXo166CW-89" value="" style="edgeStyle=orthogonalEdgeStyle;rounded=0;orthogonalLoop=1;jettySize=auto;html=1;" edge="1" parent="xrwIqNAE4D9LLXo166CW-17" source="xrwIqNAE4D9LLXo166CW-87" target="xrwIqNAE4D9LLXo166CW-86">
          <mxGeometry relative="1" as="geometry" />
        </mxCell>
        <mxCell id="xrwIqNAE4D9LLXo166CW-87" value="Modificar&amp;nbsp;" style="points=[[0.25,0,0],[0.5,0,0],[0.75,0,0],[1,0.25,0],[1,0.5,0],[1,0.75,0],[0.75,1,0],[0.5,1,0],[0.25,1,0],[0,0.75,0],[0,0.5,0],[0,0.25,0]];shape=mxgraph.bpmn.task;whiteSpace=wrap;rectStyle=rounded;size=10;html=1;taskMarker=abstract;fontSize=19;fillColor=#dae8fc;strokeColor=#6c8ebf;" vertex="1" parent="xrwIqNAE4D9LLXo166CW-17">
          <mxGeometry x="790" y="176" width="140" height="60" as="geometry" />
        </mxCell>
        <mxCell id="xrwIqNAE4D9LLXo166CW-99" style="edgeStyle=orthogonalEdgeStyle;rounded=0;orthogonalLoop=1;jettySize=auto;html=1;exitX=1;exitY=0.5;exitDx=0;exitDy=0;exitPerimeter=0;entryX=0.5;entryY=0;entryDx=0;entryDy=0;entryPerimeter=0;" edge="1" parent="xrwIqNAE4D9LLXo166CW-17" source="xrwIqNAE4D9LLXo166CW-86" target="xrwIqNAE4D9LLXo166CW-98">
          <mxGeometry relative="1" as="geometry" />
        </mxCell>
        <mxCell id="xrwIqNAE4D9LLXo166CW-86" value="Cambiar estado" style="points=[[0.25,0,0],[0.5,0,0],[0.75,0,0],[1,0.25,0],[1,0.5,0],[1,0.75,0],[0.75,1,0],[0.5,1,0],[0.25,1,0],[0,0.75,0],[0,0.5,0],[0,0.25,0]];shape=mxgraph.bpmn.task;whiteSpace=wrap;rectStyle=rounded;size=10;html=1;taskMarker=abstract;fontSize=19;fillColor=#dae8fc;strokeColor=#6c8ebf;" vertex="1" parent="xrwIqNAE4D9LLXo166CW-17">
          <mxGeometry x="1030" y="171" width="170" height="70" as="geometry" />
        </mxCell>
        <mxCell id="xrwIqNAE4D9LLXo166CW-94" value="Modificar&amp;nbsp;" style="points=[[0.25,0,0],[0.5,0,0],[0.75,0,0],[1,0.25,0],[1,0.5,0],[1,0.75,0],[0.75,1,0],[0.5,1,0],[0.25,1,0],[0,0.75,0],[0,0.5,0],[0,0.25,0]];shape=mxgraph.bpmn.task;whiteSpace=wrap;rectStyle=rounded;size=10;html=1;taskMarker=abstract;fontSize=19;fillColor=#dae8fc;strokeColor=#6c8ebf;" vertex="1" parent="xrwIqNAE4D9LLXo166CW-17">
          <mxGeometry x="790" y="505" width="140" height="60" as="geometry" />
        </mxCell>
        <mxCell id="xrwIqNAE4D9LLXo166CW-101" style="edgeStyle=orthogonalEdgeStyle;rounded=0;orthogonalLoop=1;jettySize=auto;html=1;exitX=1;exitY=0.5;exitDx=0;exitDy=0;exitPerimeter=0;entryX=0.5;entryY=1;entryDx=0;entryDy=0;entryPerimeter=0;" edge="1" parent="xrwIqNAE4D9LLXo166CW-17" source="xrwIqNAE4D9LLXo166CW-95" target="xrwIqNAE4D9LLXo166CW-98">
          <mxGeometry relative="1" as="geometry" />
        </mxCell>
        <mxCell id="xrwIqNAE4D9LLXo166CW-95" value="Cambiar estado" style="points=[[0.25,0,0],[0.5,0,0],[0.75,0,0],[1,0.25,0],[1,0.5,0],[1,0.75,0],[0.75,1,0],[0.5,1,0],[0.25,1,0],[0,0.75,0],[0,0.5,0],[0,0.25,0]];shape=mxgraph.bpmn.task;whiteSpace=wrap;rectStyle=rounded;size=10;html=1;taskMarker=abstract;fontSize=19;fillColor=#dae8fc;strokeColor=#6c8ebf;" vertex="1" parent="xrwIqNAE4D9LLXo166CW-17">
          <mxGeometry x="1030" y="498" width="170" height="70" as="geometry" />
        </mxCell>
        <mxCell id="xrwIqNAE4D9LLXo166CW-93" value="" style="edgeStyle=orthogonalEdgeStyle;rounded=0;orthogonalLoop=1;jettySize=auto;html=1;" edge="1" parent="xrwIqNAE4D9LLXo166CW-17" source="xrwIqNAE4D9LLXo166CW-94" target="xrwIqNAE4D9LLXo166CW-95">
          <mxGeometry relative="1" as="geometry" />
        </mxCell>
        <mxCell id="xrwIqNAE4D9LLXo166CW-91" value="Modificar&amp;nbsp;" style="points=[[0.25,0,0],[0.5,0,0],[0.75,0,0],[1,0.25,0],[1,0.5,0],[1,0.75,0],[0.75,1,0],[0.5,1,0],[0.25,1,0],[0,0.75,0],[0,0.5,0],[0,0.25,0]];shape=mxgraph.bpmn.task;whiteSpace=wrap;rectStyle=rounded;size=10;html=1;taskMarker=abstract;fontSize=19;fillColor=#dae8fc;strokeColor=#6c8ebf;" vertex="1" parent="xrwIqNAE4D9LLXo166CW-17">
          <mxGeometry x="801" y="325" width="140" height="60" as="geometry" />
        </mxCell>
        <mxCell id="xrwIqNAE4D9LLXo166CW-100" style="edgeStyle=orthogonalEdgeStyle;rounded=0;orthogonalLoop=1;jettySize=auto;html=1;exitX=1;exitY=0.5;exitDx=0;exitDy=0;exitPerimeter=0;entryX=0;entryY=0.5;entryDx=0;entryDy=0;entryPerimeter=0;" edge="1" parent="xrwIqNAE4D9LLXo166CW-17" source="xrwIqNAE4D9LLXo166CW-92" target="xrwIqNAE4D9LLXo166CW-98">
          <mxGeometry relative="1" as="geometry">
            <mxPoint x="1430" y="360" as="targetPoint" />
          </mxGeometry>
        </mxCell>
        <mxCell id="xrwIqNAE4D9LLXo166CW-92" value="Cambiar estado" style="points=[[0.25,0,0],[0.5,0,0],[0.75,0,0],[1,0.25,0],[1,0.5,0],[1,0.75,0],[0.75,1,0],[0.5,1,0],[0.25,1,0],[0,0.75,0],[0,0.5,0],[0,0.25,0]];shape=mxgraph.bpmn.task;whiteSpace=wrap;rectStyle=rounded;size=10;html=1;taskMarker=abstract;fontSize=19;fillColor=#dae8fc;strokeColor=#6c8ebf;" vertex="1" parent="xrwIqNAE4D9LLXo166CW-17">
          <mxGeometry x="1030" y="321" width="170" height="70" as="geometry" />
        </mxCell>
        <mxCell id="xrwIqNAE4D9LLXo166CW-90" value="" style="edgeStyle=orthogonalEdgeStyle;rounded=0;orthogonalLoop=1;jettySize=auto;html=1;" edge="1" parent="xrwIqNAE4D9LLXo166CW-17" source="xrwIqNAE4D9LLXo166CW-91" target="xrwIqNAE4D9LLXo166CW-92">
          <mxGeometry relative="1" as="geometry" />
        </mxCell>
        <mxCell id="xrwIqNAE4D9LLXo166CW-98" value="" style="points=[[0.145,0.145,0],[0.5,0,0],[0.855,0.145,0],[1,0.5,0],[0.855,0.855,0],[0.5,1,0],[0.145,0.855,0],[0,0.5,0]];shape=mxgraph.bpmn.event;html=1;verticalLabelPosition=bottom;labelBackgroundColor=#ffffff;verticalAlign=top;align=center;perimeter=ellipsePerimeter;outlineConnect=0;aspect=fixed;outline=end;symbol=terminate2;fontSize=25;fillColor=#f8cecc;strokeColor=#b85450;" vertex="1" parent="xrwIqNAE4D9LLXo166CW-17">
          <mxGeometry x="1430" y="331" width="50" height="50" as="geometry" />
        </mxCell>
        <mxCell id="xrwIqNAE4D9LLXo166CW-83" style="edgeStyle=orthogonalEdgeStyle;rounded=0;orthogonalLoop=1;jettySize=auto;html=1;exitX=0.5;exitY=1;exitDx=0;exitDy=0;exitPerimeter=0;entryX=0.25;entryY=0;entryDx=0;entryDy=0;entryPerimeter=0;" edge="1" parent="xrwIqNAE4D9LLXo166CW-1" source="xrwIqNAE4D9LLXo166CW-7" target="xrwIqNAE4D9LLXo166CW-73">
          <mxGeometry relative="1" as="geometry">
            <Array as="points">
              <mxPoint x="475" y="280" />
              <mxPoint x="180" y="280" />
              <mxPoint x="180" y="530" />
            </Array>
          </mxGeometry>
        </mxCell>
        <mxCell id="xrwIqNAE4D9LLXo166CW-84" style="edgeStyle=orthogonalEdgeStyle;rounded=0;orthogonalLoop=1;jettySize=auto;html=1;exitX=0.5;exitY=1;exitDx=0;exitDy=0;exitPerimeter=0;entryX=0.5;entryY=0;entryDx=0;entryDy=0;entryPerimeter=0;" edge="1" parent="xrwIqNAE4D9LLXo166CW-1" source="xrwIqNAE4D9LLXo166CW-9" target="xrwIqNAE4D9LLXo166CW-73">
          <mxGeometry relative="1" as="geometry">
            <Array as="points">
              <mxPoint x="710" y="310" />
              <mxPoint x="213" y="310" />
            </Array>
          </mxGeometry>
        </mxCell>
        <mxCell id="xrwIqNAE4D9LLXo166CW-85" style="edgeStyle=orthogonalEdgeStyle;rounded=0;orthogonalLoop=1;jettySize=auto;html=1;exitX=0.5;exitY=1;exitDx=0;exitDy=0;exitPerimeter=0;entryX=0.75;entryY=0;entryDx=0;entryDy=0;entryPerimeter=0;" edge="1" parent="xrwIqNAE4D9LLXo166CW-1" source="xrwIqNAE4D9LLXo166CW-16" target="xrwIqNAE4D9LLXo166CW-73">
          <mxGeometry relative="1" as="geometry">
            <mxPoint x="280" y="530" as="targetPoint" />
          </mxGeometry>
        </mxCell>
      </root>
    </mxGraphModel>
  </diagram>
</mxfile>
